  0
SECTION
  2
HEADER
  9
$ACADVER
  1
AC1024
  9
$ACADMAINTVER
 70
6
  9
$DWGCODEPAGE
  3
ANSI_1252
  9
$LASTSAVEDBY
  1
ezdxf
  9
$INSBASE
 10
0.0
 20
0.0
 30
0.0
  9
$EXTMIN
 10
1e+20
 20
1e+20
 30
1e+20
  9
$EXTMAX
 10
-1e+20
 20
-1e+20
 30
-1e+20
  9
$LIMMIN
 10
0.0
 20
0.0
  9
$LIMMAX
 10
420.0
 20
297.0
  9
$ORTHOMODE
 70
0
  9
$REGENMODE
 70
1
  9
$FILLMODE
 70
1
  9
$QTEXTMODE
 70
0
  9
$MIRRTEXT
 70
1
  9
$LTSCALE
 40
1.0
  9
$ATTMODE
 70
1
  9
$TEXTSIZE
 40
2.5
  9
$TRACEWID
 40
1.0
  9
$TEXTSTYLE
  7
OpenSans
  9
$CLAYER
  8
0
  9
$CELTYPE
  6
ByLayer
  9
$CECOLOR
 62
256
  9
$CELTSCALE
 40
1.0
  9
$DISPSILH
 70
0
  9
$DIMSCALE
 40
1.0
  9
$DIMASZ
 40
0.175
  9
$DIMEXO
 40
0.125
  9
$DIMDLI
 40
3.75
  9
$DIMRND
 40
0.0
  9
$DIMDLE
 40
0.0
  9
$DIMEXE
 40
0.375
  9
$DIMTP
 40
0.0
  9
$DIMTM
 40
0.0
  9
$DIMTXT
 40
0.25
  9
$DIMCEN
 40
2.5
  9
$DIMTSZ
 40
0.0
  9
$DIMTOL
 70
0
  9
$DIMLIM
 70
0
  9
$DIMTIH
 70
0
  9
$DIMTOH
 70
0
  9
$DIMSE1
 70
0
  9
$DIMSE2
 70
0
  9
$DIMTAD
 70
1
  9
$DIMZIN
 70
12
  9
$DIMBLK
  1
ARCHTICK
  9
$DIMASO
 70
1
  9
$DIMSHO
 70
1
  9
$DIMPOST
  1

  9
$DIMAPOST
  1

  9
$DIMALT
 70
0
  9
$DIMALTD
 70
3
  9
$DIMALTF
 40
0.03937007874
  9
$DIMLFAC
 40
100.0
  9
$DIMTOFL
 70
1
  9
$DIMTVP
 40
0.0
  9
$DIMTIX
 70
0
  9
$DIMSOXD
 70
0
  9
$DIMSAH
 70
0
  9
$DIMBLK1
  1

  9
$DIMBLK2
  1

  9
$DIMSTYLE
  2
EZDXF
  9
$DIMCLRD
 70
0
  9
$DIMCLRE
 70
0
  9
$DIMCLRT
 70
0
  9
$DIMTFAC
 40
0.5
  9
$DIMGAP
 40
0.1
  9
$DIMJUST
 70
0
  9
$DIMSD1
 70
0
  9
$DIMSD2
 70
0
  9
$DIMTOLJ
 70
0
  9
$DIMTZIN
 70
8
  9
$DIMALTZ
 70
0
  9
$DIMALTTZ
 70
0
  9
$DIMUPT
 70
1
  9
$DIMDEC
 70
2
  9
$DIMTDEC
 70
2
  9
$DIMALTU
 70
2
  9
$DIMALTTD
 70
3
  9
$DIMTXSTY
  7
OpenSansCondensed-Light
  9
$DIMAUNIT
 70
0
  9
$DIMADEC
 70
2
  9
$DIMALTRND
 40
0.0
  9
$DIMAZIN
 70
3
  9
$DIMDSEP
 70
46
  9
$DIMATFIT
 70
3
  9
$DIMFRAC
 70
0
  9
$DIMLDRBLK
  1

  9
$DIMLUNIT
 70
2
  9
$DIMLWD
 70
-2
  9
$DIMLWE
 70
-2
  9
$DIMTMOVE
 70
2
  9
$DIMFXL
 40
1.0
  9
$DIMFXLON
 70
0
  9
$DIMJOGANG
 40
0.785398163397
  9
$DIMTFILL
 70
0
  9
$DIMTFILLCLR
 70
0
  9
$DIMARCSYM
 70
0
  9
$DIMLTYPE
  6

  9
$DIMLTEX1
  6

  9
$DIMLTEX2
  6

  9
$DIMTXTDIRECTION
 70
0
  9
$LUNITS
 70
2
  9
$LUPREC
 70
4
  9
$SKETCHINC
 40
1.0
  9
$FILLETRAD
 40
10.0
  9
$AUNITS
 70
0
  9
$AUPREC
 70
2
  9
$MENU
  1
.
  9
$ELEVATION
 40
0.0
  9
$PELEVATION
 40
0.0
  9
$THICKNESS
 40
0.0
  9
$LIMCHECK
 70
0
  9
$CHAMFERA
 40
0.0
  9
$CHAMFERB
 40
0.0
  9
$CHAMFERC
 40
0.0
  9
$CHAMFERD
 40
0.0
  9
$SKPOLY
 70
0
  9
$TDCREATE
 40
2461258.884548611
  9
$TDUCREATE
 40
2458532.153996898
  9
$TDUPDATE
 40
2461258.884548611
  9
$TDUUPDATE
 40
2458532.1544311
  9
$TDINDWG
 40
0.0
  9
$TDUSRTIMER
 40
0.0
  9
$USRTIMER
 70
1
  9
$ANGBASE
 50
0.0
  9
$ANGDIR
 70
0
  9
$PDMODE
 70
0
  9
$PDSIZE
 40
0.0
  9
$PLINEWID
 40
0.0
  9
$SPLFRAME
 70
0
  9
$SPLINETYPE
 70
6
  9
$SPLINESEGS
 70
8
  9
$HANDSEED
  5
1FD
  9
$SURFTAB1
 70
6
  9
$SURFTAB2
 70
6
  9
$SURFTYPE
 70
6
  9
$SURFU
 70
6
  9
$SURFV
 70
6
  9
$UCSBASE
  2

  9
$UCSNAME
  2

  9
$UCSORG
 10
0.0
 20
0.0
 30
0.0
  9
$UCSXDIR
 10
1.0
 20
0.0
 30
0.0
  9
$UCSYDIR
 10
0.0
 20
1.0
 30
0.0
  9
$UCSORTHOREF
  2

  9
$UCSORTHOVIEW
 70
0
  9
$UCSORGTOP
 10
0.0
 20
0.0
 30
0.0
  9
$UCSORGBOTTOM
 10
0.0
 20
0.0
 30
0.0
  9
$UCSORGLEFT
 10
0.0
 20
0.0
 30
0.0
  9
$UCSORGRIGHT
 10
0.0
 20
0.0
 30
0.0
  9
$UCSORGFRONT
 10
0.0
 20
0.0
 30
0.0
  9
$UCSORGBACK
 10
0.0
 20
0.0
 30
0.0
  9
$PUCSBASE
  2

  9
$PUCSNAME
  2

  9
$PUCSORG
 10
0.0
 20
0.0
 30
0.0
  9
$PUCSXDIR
 10
1.0
 20
0.0
 30
0.0
  9
$PUCSYDIR
 10
0.0
 20
1.0
 30
0.0
  9
$PUCSORTHOREF
  2

  9
$PUCSORTHOVIEW
 70
0
  9
$PUCSORGTOP
 10
0.0
 20
0.0
 30
0.0
  9
$PUCSORGBOTTOM
 10
0.0
 20
0.0
 30
0.0
  9
$PUCSORGLEFT
 10
0.0
 20
0.0
 30
0.0
  9
$PUCSORGRIGHT
 10
0.0
 20
0.0
 30
0.0
  9
$PUCSORGFRONT
 10
0.0
 20
0.0
 30
0.0
  9
$PUCSORGBACK
 10
0.0
 20
0.0
 30
0.0
  9
$USERI1
 70
0
  9
$USERI2
 70
0
  9
$USERI3
 70
0
  9
$USERI4
 70
0
  9
$USERI5
 70
0
  9
$USERR1
 40
0.0
  9
$USERR2
 40
0.0
  9
$USERR3
 40
0.0
  9
$USERR4
 40
0.0
  9
$USERR5
 40
0.0
  9
$WORLDVIEW
 70
1
  9
$SHADEDGE
 70
3
  9
$SHADEDIF
 70
70
  9
$TILEMODE
 70
1
  9
$MAXACTVP
 70
64
  9
$PINSBASE
 10
0.0
 20
0.0
 30
0.0
  9
$PLIMCHECK
 70
0
  9
$PEXTMIN
 10
1e+20
 20
1e+20
 30
1e+20
  9
$PEXTMAX
 10
-1e+20
 20
-1e+20
 30
-1e+20
  9
$PLIMMIN
 10
0.0
 20
0.0
  9
$PLIMMAX
 10
420.0
 20
297.0
  9
$UNITMODE
 70
0
  9
$VISRETAIN
 70
1
  9
$PLINEGEN
 70
0
  9
$PSLTSCALE
 70
1
  9
$TREEDEPTH
 70
3020
  9
$CMLSTYLE
  2
Standard
  9
$CMLJUST
 70
0
  9
$CMLSCALE
 40
20.0
  9
$PROXYGRAPHICS
 70
1
  9
$MEASUREMENT
 70
1
  9
$CELWEIGHT
370
-1
  9
$ENDCAPS
280
0
  9
$JOINSTYLE
280
0
  9
$LWDISPLAY
290
0
  9
$INSUNITS
 70
4
  9
$HYPERLINKBASE
  1

  9
$STYLESHEET
  1

  9
$XEDIT
290
1
  9
$CEPSNTYPE
380
0
  9
$PSTYLEMODE
290
1
  9
$FINGERPRINTGUID
  2
{F9FBBCEA-B970-4B25-8C04-C0CE73E94AB5}
  9
$VERSIONGUID
  2
{0EFE596F-BA19-40A5-96F6-463F71D8630B}
  9
$EXTNAMES
290
1
  9
$PSVPSCALE
 40
0.0
  9
$OLESTARTUP
290
0
  9
$SORTENTS
280
127
  9
$INDEXCTL
280
0
  9
$HIDETEXT
280
1
  9
$XCLIPFRAME
280
1
  9
$HALOGAP
280
0
  9
$OBSCOLOR
 70
257
  9
$OBSLTYPE
280
0
  9
$INTERSECTIONDISPLAY
280
0
  9
$INTERSECTIONCOLOR
 70
257
  9
$DIMASSOC
280
2
  9
$PROJECTNAME
  1

  9
$CAMERADISPLAY
290
0
  9
$LENSLENGTH
 40
50.0
  9
$CAMERAHEIGHT
 40
0.0
  9
$STEPSPERSEC
 40
24.0
  9
$STEPSIZE
 40
100.0
  9
$3DDWFPREC
 40
2.0
  9
$PSOLWIDTH
 40
0.005
  9
$PSOLHEIGHT
 40
0.08
  9
$LOFTANG1
 40
1.570796326795
  9
$LOFTANG2
 40
1.570796326795
  9
$LOFTMAG1
 40
0.0
  9
$LOFTMAG2
 40
0.0
  9
$LOFTPARAM
 70
7
  9
$LOFTNORMALS
280
1
  9
$LATITUDE
 40
37.795
  9
$LONGITUDE
 40
-122.394
  9
$NORTHDIRECTION
 40
0.0
  9
$TIMEZONE
 70
-8000
  9
$LIGHTGLYPHDISPLAY
280
1
  9
$TILEMODELIGHTSYNCH
280
1
  9
$CMATERIAL
347
20
  9
$SOLIDHIST
280
0
  9
$SHOWHIST
280
1
  9
$DWFFRAME
280
2
  9
$DGNFRAME
280
2
  9
$REALWORLDSCALE
290
1
  9
$INTERFERECOLOR
 62
256
  9
$CSHADOW
280
0
  9
$SHADOWPLANELOCATION
 40
0.0
  0
ENDSEC
  0
SECTION
  2
CLASSES
  0
CLASS
  1
ACDBDICTIONARYWDFLT
  2
AcDbDictionaryWithDefault
  3
ObjectDBX Classes
 90
0
 91
0
280
0
281
0
  0
CLASS
  1
SUN
  2
AcDbSun
  3
SCENEOE
 90
1153
 91
0
280
0
281
0
  0
CLASS
  1
VISUALSTYLE
  2
AcDbVisualStyle
  3
ObjectDBX Classes
 90
4095
 91
0
280
0
281
0
  0
CLASS
  1
MATERIAL
  2
AcDbMaterial
  3
ObjectDBX Classes
 90
1153
 91
0
280
0
281
0
  0
CLASS
  1
SCALE
  2
AcDbScale
  3
ObjectDBX Classes
 90
1153
 91
0
280
0
281
0
  0
CLASS
  1
TABLESTYLE
  2
AcDbTableStyle
  3
ObjectDBX Classes
 90
4095
 91
0
280
0
281
0
  0
CLASS
  1
MLEADERSTYLE
  2
AcDbMLeaderStyle
  3
ACDB_MLEADERSTYLE_CLASS
 90
4095
 91
0
280
0
281
0
  0
CLASS
  1
DICTIONARYVAR
  2
AcDbDictionaryVar
  3
ObjectDBX Classes
 90
0
 91
0
280
0
281
0
  0
CLASS
  1
CELLSTYLEMAP
  2
AcDbCellStyleMap
  3
ObjectDBX Classes
 90
1152
 91
0
280
0
281
0
  0
CLASS
  1
MENTALRAYRENDERSETTINGS
  2
AcDbMentalRayRenderSettings
  3
SCENEOE
 90
1024
 91
0
280
0
281
0
  0
CLASS
  1
ACDBDETAILVIEWSTYLE
  2
AcDbDetailViewStyle
  3
ObjectDBX Classes
 90
1025
 91
0
280
0
281
0
  0
CLASS
  1
ACDBSECTIONVIEWSTYLE
  2
AcDbSectionViewStyle
  3
ObjectDBX Classes
 90
1025
 91
0
280
0
281
0
  0
CLASS
  1
RASTERVARIABLES
  2
AcDbRasterVariables
  3
ISM
 90
0
 91
0
280
0
281
0
  0
CLASS
  1
LAYOUT
  2
AcDbLayout
  3
ObjectDBX Classes
 90
0
 91
0
280
0
281
0
  0
CLASS
  1
ACDBPLACEHOLDER
  2
AcDbPlaceHolder
  3
ObjectDBX Classes
 90
0
 91
0
280
0
281
0
  0
ENDSEC
  0
SECTION
  2
TABLES
  0
TABLE
  2
VPORT
  5
8
330
0
100
AcDbSymbolTable
 70
1
  0
VPORT
  5
23
330
8
100
AcDbSymbolTableRecord
100
AcDbViewportTableRecord
  2
*Active
 70
0
 10
0.0
 20
0.0
 11
1.0
 21
1.0
 12
0.0
 22
0.0
 13
0.0
 23
0.0
 14
0.5
 24
0.5
 15
0.5
 25
0.5
 16
0.0
 26
0.0
 36
1.0
 17
0.0
 27
0.0
 37
0.0
 40
1000.0
 41
1.34
 42
50.0
 43
0.0
 44
0.0
 50
0.0
 51
0.0
 71
0
 72
1000
 73
1
 74
3
 75
0
 76
0
 77
0
 78
0
281
0
 65
0
146
0.0
  0
ENDTAB
  0
TABLE
  2
LTYPE
  5
2
330
0
100
AcDbSymbolTable
 70
21
  0
LTYPE
  5
24
330
2
100
AcDbSymbolTableRecord
100
AcDbLinetypeTableRecord
  2
ByBlock
 70
0
  3

 72
65
 73
0
 40
0.0
  0
LTYPE
  5
25
330
2
100
AcDbSymbolTableRecord
100
AcDbLinetypeTableRecord
  2
ByLayer
 70
0
  3

 72
65
 73
0
 40
0.0
  0
LTYPE
  5
26
330
2
100
AcDbSymbolTableRecord
100
AcDbLinetypeTableRecord
  2
Continuous
 70
0
  3

 72
65
 73
0
 40
0.0
  0
LTYPE
  5
2F
330
2
100
AcDbSymbolTableRecord
100
AcDbLinetypeTableRecord
  2
CENTER
 70
0
  3
Center ____ _ ____ _ ____ _ ____ _ ____ _ ____
 72
65
 73
4
 40
5.08
 49
3.175
 74
0
 49
-0.635
 74
0
 49
0.635
 74
0
 49
-0.635
 74
0
  0
LTYPE
  5
30
330
2
100
AcDbSymbolTableRecord
100
AcDbLinetypeTableRecord
  2
CENTERX2
 70
0
  3
Center (2x) ________  __  ________  __  ________
 72
65
 73
4
 40
8.89
 49
6.35
 74
0
 49
-0.635
 74
0
 49
1.27
 74
0
 49
-0.635
 74
0
  0
LTYPE
  5
31
330
2
100
AcDbSymbolTableRecord
100
AcDbLinetypeTableRecord
  2
CENTER2
 70
0
  3
Center (.5x) ____ _ ____ _ ____ _ ____ _ ____
 72
65
 73
4
 40
2.54
 49
1.587
 74
0
 49
-0.318
 74
0
 49
0.318
 74
0
 49
-0.318
 74
0
  0
LTYPE
  5
32
330
2
100
AcDbSymbolTableRecord
100
AcDbLinetypeTableRecord
  2
DASHED
 70
0
  3
Dashed __ __ __ __ __ __ __ __ __ __ __ __ __ _
 72
65
 73
2
 40
1.524
 49
1.27
 74
0
 49
-0.254
 74
0
  0
LTYPE
  5
33
330
2
100
AcDbSymbolTableRecord
100
AcDbLinetypeTableRecord
  2
DASHEDX2
 70
0
  3
Dashed (2x) ____  ____  ____  ____  ____  ____
 72
65
 73
2
 40
3.048
 49
2.54
 74
0
 49
-0.508
 74
0
  0
LTYPE
  5
34
330
2
100
AcDbSymbolTableRecord
100
AcDbLinetypeTableRecord
  2
DASHED2
 70
0
  3
Dashed (.5x) _ _ _ _ _ _ _ _ _ _ _ _ _ _
 72
65
 73
2
 40
0.762
 49
0.635
 74
0
 49
-0.127
 74
0
  0
LTYPE
  5
35
330
2
100
AcDbSymbolTableRecord
100
AcDbLinetypeTableRecord
  2
PHANTOM
 70
0
  3
Phantom ______  __  __  ______  __  __  ______
 72
65
 73
6
 40
6.35
 49
3.175
 74
0
 49
-0.635
 74
0
 49
0.635
 74
0
 49
-0.635
 74
0
 49
0.635
 74
0
 49
-0.635
 74
0
  0
LTYPE
  5
36
330
2
100
AcDbSymbolTableRecord
100
AcDbLinetypeTableRecord
  2
PHANTOMX2
 70
0
  3
Phantom (2x)____________    ____    ____    ____________
 72
65
 73
6
 40
10.795
 49
6.35
 74
0
 49
-0.635
 74
0
 49
1.27
 74
0
 49
-0.635
 74
0
 49
1.27
 74
0
 49
-0.635
 74
0
  0
LTYPE
  5
37
330
2
100
AcDbSymbolTableRecord
100
AcDbLinetypeTableRecord
  2
PHANTOM2
 70
0
  3
Phantom (.5x) ___ _ _ ___ _ _ ___ _ _ ___ _ _ ___
 72
65
 73
6
 40
3.175
 49
1.587
 74
0
 49
-0.318
 74
0
 49
0.318
 74
0
 49
-0.318
 74
0
 49
0.318
 74
0
 49
-0.318
 74
0
  0
LTYPE
  5
38
330
2
100
AcDbSymbolTableRecord
100
AcDbLinetypeTableRecord
  2
DASHDOT
 70
0
  3
Dash dot __ . __ . __ . __ . __ . __ . __ . __
 72
65
 73
4
 40
3.556
 49
2.54
 74
0
 49
-0.508
 74
0
 49
0.0
 74
0
 49
-0.508
 74
0
  0
LTYPE
  5
39
330
2
100
AcDbSymbolTableRecord
100
AcDbLinetypeTableRecord
  2
DASHDOTX2
 70
0
  3
Dash dot (2x) ____  .  ____  .  ____  .  ____
 72
65
 73
4
 40
6.096
 49
5.08
 74
0
 49
-0.508
 74
0
 49
0.0
 74
0
 49
-0.508
 74
0
  0
LTYPE
  5
3A
330
2
100
AcDbSymbolTableRecord
100
AcDbLinetypeTableRecord
  2
DASHDOT2
 70
0
  3
Dash dot (.5x) _ . _ . _ . _ . _ . _ . _ . _
 72
65
 73
4
 40
1.778
 49
1.27
 74
0
 49
-0.254
 74
0
 49
0.0
 74
0
 49
-0.254
 74
0
  0
LTYPE
  5
3B
330
2
100
AcDbSymbolTableRecord
100
AcDbLinetypeTableRecord
  2
DOT
 70
0
  3
Dot .  .  .  .  .  .  .  .  .  .  .  .  .  .  .  .
 72
65
 73
2
 40
0.508
 49
0.0
 74
0
 49
-0.508
 74
0
  0
LTYPE
  5
3C
330
2
100
AcDbSymbolTableRecord
100
AcDbLinetypeTableRecord
  2
DOTX2
 70
0
  3
Dot (2x) .    .    .    .    .    .    .    . 
 72
65
 73
2
 40
1.016
 49
0.0
 74
0
 49
-1.016
 74
0
  0
LTYPE
  5
3D
330
2
100
AcDbSymbolTableRecord
100
AcDbLinetypeTableRecord
  2
DOT2
 70
0
  3
Dot (.5) . . . . . . . . . . . . . . . . . . . 
 72
65
 73
2
 40
0.254
 49
0.0
 74
0
 49
-0.254
 74
0
  0
LTYPE
  5
3E
330
2
100
AcDbSymbolTableRecord
100
AcDbLinetypeTableRecord
  2
DIVIDE
 70
0
  3
Divide __ . . __ . . __ . . __ . . __ . . __
 72
65
 73
6
 40
4.064
 49
2.54
 74
0
 49
-0.508
 74
0
 49
0.0
 74
0
 49
-0.508
 74
0
 49
0.0
 74
0
 49
-0.508
 74
0
  0
LTYPE
  5
3F
330
2
100
AcDbSymbolTableRecord
100
AcDbLinetypeTableRecord
  2
DIVIDEX2
 70
0
  3
Divide (2x) ____  . .  ____  . .  ____  . .  ____
 72
65
 73
6
 40
6.604
 49
5.08
 74
0
 49
-0.508
 74
0
 49
0.0
 74
0
 49
-0.508
 74
0
 49
0.0
 74
0
 49
-0.508
 74
0
  0
LTYPE
  5
40
330
2
100
AcDbSymbolTableRecord
100
AcDbLinetypeTableRecord
  2
DIVIDE2
 70
0
  3
Divide(.5x) _ . _ . _ . _ . _ . _ . _ . _
 72
65
 73
6
 40
2.032
 49
1.27
 74
0
 49
-0.254
 74
0
 49
0.0
 74
0
 49
-0.254
 74
0
 49
0.0
 74
0
 49
-0.254
 74
0
  0
ENDTAB
  0
TABLE
  2
LAYER
  5
1
330
0
100
AcDbSymbolTable
 70
16
  0
LAYER
  5
27
330
1
100
AcDbSymbolTableRecord
100
AcDbLayerTableRecord
  2
0
 70
0
 62
7
  6
Continuous
370
-3
390
13
347
21
  0
LAYER
  5
28
330
1
100
AcDbSymbolTableRecord
100
AcDbLayerTableRecord
  2
Defpoints
 70
0
 62
7
  6
Continuous
290
0
370
-3
390
13
347
21
  0
LAYER
  5
8A
330
1
100
AcDbSymbolTableRecord
100
AcDbLayerTableRecord
  2
A-WALL
 70
0
 62
7
  6
Continuous
370
-3
390
13
347
21
  0
LAYER
  5
8B
330
1
100
AcDbSymbolTableRecord
100
AcDbLayerTableRecord
  2
A-WALL-PATT
 70
0
 62
8
  6
Continuous
370
-3
390
13
347
21
  0
LAYER
  5
8C
330
1
100
AcDbSymbolTableRecord
100
AcDbLayerTableRecord
  2
A-DOOR
 70
0
 62
3
  6
Continuous
370
-3
390
13
347
21
  0
LAYER
  5
8D
330
1
100
AcDbSymbolTableRecord
100
AcDbLayerTableRecord
  2
A-GLAZ
 70
0
 62
4
  6
Continuous
370
-3
390
13
347
21
  0
LAYER
  5
8E
330
1
100
AcDbSymbolTableRecord
100
AcDbLayerTableRecord
  2
A-FLOR-FIXT
 70
0
 62
5
  6
Continuous
370
-3
390
13
347
21
  0
LAYER
  5
8F
330
1
100
AcDbSymbolTableRecord
100
AcDbLayerTableRecord
  2
I-FURN
 70
0
 62
9
  6
Continuous
370
-3
390
13
347
21
  0
LAYER
  5
90
330
1
100
AcDbSymbolTableRecord
100
AcDbLayerTableRecord
  2
A-ROOF
 70
0
 62
1
  6
Continuous
370
-3
390
13
347
21
  0
LAYER
  5
91
330
1
100
AcDbSymbolTableRecord
100
AcDbLayerTableRecord
  2
A-ANNO-TEXT
 70
0
 62
7
  6
Continuous
370
-3
390
13
347
21
  0
LAYER
  5
92
330
1
100
AcDbSymbolTableRecord
100
AcDbLayerTableRecord
  2
A-ANNO-DIMS
 70
0
 62
2
  6
Continuous
370
-3
390
13
347
21
  0
LAYER
  5
93
330
1
100
AcDbSymbolTableRecord
100
AcDbLayerTableRecord
  2
A-KITCHEN
 70
0
 62
30
  6
Continuous
370
-3
390
13
347
21
  0
LAYER
  5
94
330
1
100
AcDbSymbolTableRecord
100
AcDbLayerTableRecord
  2
A-SITE
 70
0
 62
8
  6
DASHED
370
-3
390
13
347
21
  0
LAYER
  5
95
330
1
100
AcDbSymbolTableRecord
100
AcDbLayerTableRecord
  2
M-GAS
 70
0
 62
2
  6
Continuous
370
-3
390
13
347
21
  0
LAYER
  5
96
330
1
100
AcDbSymbolTableRecord
100
AcDbLayerTableRecord
  2
P-CIST
 70
0
 62
4
  6
DASHED
370
-3
390
13
347
21
  0
LAYER
  5
97
330
1
100
AcDbSymbolTableRecord
100
AcDbLayerTableRecord
  2
E-PANEL
 70
0
 62
1
  6
Continuous
370
-3
390
13
347
21
  0
ENDTAB
  0
TABLE
  2
STYLE
  5
5
330
0
100
AcDbSymbolTable
 70
26
  0
STYLE
  5
29
330
5
100
AcDbSymbolTableRecord
100
AcDbTextStyleTableRecord
  2
Standard
 70
0
 40
0.0
 41
1.0
 50
0.0
 71
0
 42
2.5
  3
txt
  4

  0
STYLE
  5
41
330
5
100
AcDbSymbolTableRecord
100
AcDbTextStyleTableRecord
  2
OpenSans-Light
 70
0
 40
0.0
 41
1.0
 50
0.0
 71
0
 42
2.5
  3
OpenSans-Light.ttf
  4

  0
STYLE
  5
42
330
5
100
AcDbSymbolTableRecord
100
AcDbTextStyleTableRecord
  2
OpenSans-Light-Italic
 70
0
 40
0.0
 41
1.0
 50
0.0
 71
0
 42
2.5
  3
OpenSans-LightItalic.ttf
  4

  0
STYLE
  5
43
330
5
100
AcDbSymbolTableRecord
100
AcDbTextStyleTableRecord
  2
OpenSans
 70
0
 40
0.0
 41
1.0
 50
0.0
 71
0
 42
2.5
  3
OpenSans-Regular.ttf
  4

  0
STYLE
  5
44
330
5
100
AcDbSymbolTableRecord
100
AcDbTextStyleTableRecord
  2
OpenSans-Italic
 70
0
 40
0.0
 41
1.0
 50
0.0
 71
0
 42
2.5
  3
OpenSans-Italic.ttf
  4

  0
STYLE
  5
45
330
5
100
AcDbSymbolTableRecord
100
AcDbTextStyleTableRecord
  2
OpenSans-SemiBold
 70
0
 40
0.0
 41
1.0
 50
0.0
 71
0
 42
2.5
  3
OpenSans-SemiBold.ttf
  4

  0
STYLE
  5
46
330
5
100
AcDbSymbolTableRecord
100
AcDbTextStyleTableRecord
  2
OpenSans-SemiBoldItalic
 70
0
 40
0.0
 41
1.0
 50
0.0
 71
0
 42
2.5
  3
OpenSans-SemiBoldItalic.ttf
  4

  0
STYLE
  5
47
330
5
100
AcDbSymbolTableRecord
100
AcDbTextStyleTableRecord
  2
OpenSans-Bold
 70
0
 40
0.0
 41
1.0
 50
0.0
 71
0
 42
2.5
  3
OpenSans-Bold.ttf
  4

  0
STYLE
  5
48
330
5
100
AcDbSymbolTableRecord
100
AcDbTextStyleTableRecord
  2
OpenSans-BoldItalic
 70
0
 40
0.0
 41
1.0
 50
0.0
 71
0
 42
2.5
  3
OpenSans-BoldItalic.ttf
  4

  0
STYLE
  5
49
330
5
100
AcDbSymbolTableRecord
100
AcDbTextStyleTableRecord
  2
OpenSans-ExtraBold
 70
0
 40
0.0
 41
1.0
 50
0.0
 71
0
 42
2.5
  3
OpenSans-ExtraBold.ttf
  4

  0
STYLE
  5
4A
330
5
100
AcDbSymbolTableRecord
100
AcDbTextStyleTableRecord
  2
OpenSans-ExtraBoldItalic
 70
0
 40
0.0
 41
1.0
 50
0.0
 71
0
 42
2.5
  3
OpenSans-ExtraBoldItalic.ttf
  4

  0
STYLE
  5
4B
330
5
100
AcDbSymbolTableRecord
100
AcDbTextStyleTableRecord
  2
OpenSansCondensed-Bold
 70
0
 40
0.0
 41
1.0
 50
0.0
 71
0
 42
2.5
  3
OpenSansCondensed-Bold.ttf
  4

  0
STYLE
  5
4C
330
5
100
AcDbSymbolTableRecord
100
AcDbTextStyleTableRecord
  2
OpenSansCondensed-Light
 70
0
 40
0.0
 41
1.0
 50
0.0
 71
0
 42
2.5
  3
OpenSansCondensed-Light.ttf
  4

  0
STYLE
  5
4D
330
5
100
AcDbSymbolTableRecord
100
AcDbTextStyleTableRecord
  2
OpenSansCondensed-Italic
 70
0
 40
0.0
 41
1.0
 50
0.0
 71
0
 42
2.5
  3
OpenSansCondensed-LightItalic.ttf
  4

  0
STYLE
  5
4E
330
5
100
AcDbSymbolTableRecord
100
AcDbTextStyleTableRecord
  2
LiberationSans
 70
0
 40
0.0
 41
1.0
 50
0.0
 71
0
 42
2.5
  3
LiberationSans-Regular.ttf
  4

  0
STYLE
  5
4F
330
5
100
AcDbSymbolTableRecord
100
AcDbTextStyleTableRecord
  2
LiberationSans-Bold
 70
0
 40
0.0
 41
1.0
 50
0.0
 71
0
 42
2.5
  3
LiberationSans-Bold.ttf
  4

  0
STYLE
  5
50
330
5
100
AcDbSymbolTableRecord
100
AcDbTextStyleTableRecord
  2
LiberationSans-BoldItalic
 70
0
 40
0.0
 41
1.0
 50
0.0
 71
0
 42
2.5
  3
LiberationSans-BoldItalic.ttf
  4

  0
STYLE
  5
51
330
5
100
AcDbSymbolTableRecord
100
AcDbTextStyleTableRecord
  2
LiberationSans-Italic
 70
0
 40
0.0
 41
1.0
 50
0.0
 71
0
 42
2.5
  3
LiberationSans-Italic.ttf
  4

  0
STYLE
  5
52
330
5
100
AcDbSymbolTableRecord
100
AcDbTextStyleTableRecord
  2
LiberationSerif
 70
0
 40
0.0
 41
1.0
 50
0.0
 71
0
 42
2.5
  3
LiberationSerif-Regular.ttf
  4

  0
STYLE
  5
53
330
5
100
AcDbSymbolTableRecord
100
AcDbTextStyleTableRecord
  2
LiberationSerif-Bold
 70
0
 40
0.0
 41
1.0
 50
0.0
 71
0
 42
2.5
  3
LiberationSerif-Bold.ttf
  4

  0
STYLE
  5
54
330
5
100
AcDbSymbolTableRecord
100
AcDbTextStyleTableRecord
  2
LiberationSerif-BoldItalic
 70
0
 40
0.0
 41
1.0
 50
0.0
 71
0
 42
2.5
  3
LiberationSerif-BoldItalic.ttf
  4

  0
STYLE
  5
55
330
5
100
AcDbSymbolTableRecord
100
AcDbTextStyleTableRecord
  2
LiberationSerif-Italic
 70
0
 40
0.0
 41
1.0
 50
0.0
 71
0
 42
2.5
  3
LiberationSerif-Italic.ttf
  4

  0
STYLE
  5
56
330
5
100
AcDbSymbolTableRecord
100
AcDbTextStyleTableRecord
  2
LiberationMono
 70
0
 40
0.0
 41
1.0
 50
0.0
 71
0
 42
2.5
  3
LiberationMono-Regular.ttf
  4

  0
STYLE
  5
57
330
5
100
AcDbSymbolTableRecord
100
AcDbTextStyleTableRecord
  2
LiberationMono-Bold
 70
0
 40
0.0
 41
1.0
 50
0.0
 71
0
 42
2.5
  3
LiberationMono-Bold.ttf
  4

  0
STYLE
  5
58
330
5
100
AcDbSymbolTableRecord
100
AcDbTextStyleTableRecord
  2
LiberationMono-BoldItalic
 70
0
 40
0.0
 41
1.0
 50
0.0
 71
0
 42
2.5
  3
LiberationMono-BoldItalic.ttf
  4

  0
STYLE
  5
59
330
5
100
AcDbSymbolTableRecord
100
AcDbTextStyleTableRecord
  2
LiberationMono-Italic
 70
0
 40
0.0
 41
1.0
 50
0.0
 71
0
 42
2.5
  3
LiberationMono-Italic.ttf
  4

  0
ENDTAB
  0
TABLE
  2
VIEW
  5
7
330
0
100
AcDbSymbolTable
 70
0
  0
ENDTAB
  0
TABLE
  2
UCS
  5
6
330
0
100
AcDbSymbolTable
 70
0
  0
ENDTAB
  0
TABLE
  2
APPID
  5
3
330
0
100
AcDbSymbolTable
 70
3
  0
APPID
  5
2A
330
3
100
AcDbSymbolTableRecord
100
AcDbRegAppTableRecord
  2
ACAD
 70
0
  0
APPID
  5
1FA
330
3
100
AcDbSymbolTableRecord
100
AcDbRegAppTableRecord
  2
HATCHBACKGROUNDCOLOR
 70
0
  0
APPID
  5
1FB
330
3
100
AcDbSymbolTableRecord
100
AcDbRegAppTableRecord
  2
EZDXF
 70
0
  0
ENDTAB
  0
TABLE
  2
DIMSTYLE
  5
4
330
0
100
AcDbSymbolTable
 70
12
100
AcDbDimStyleTable
  0
DIMSTYLE
105
2B
330
4
100
AcDbSymbolTableRecord
100
AcDbDimStyleTableRecord
  2
Standard
 70
0
 40
1.0
 41
2.5
 42
0.625
 43
3.75
 44
1.25
 45
0.0
 46
0.0
 47
0.0
 48
0.0
 49
2.5
140
2.5
141
2.5
142
0.0
143
0.03937007874
144
1.0
145
0.0
146
1.0
147
0.625
148
0.0
 69
0
 70
0
 71
0
 72
0
 73
0
 74
0
 75
0
 76
0
 77
1
 78
8
 79
3
170
0
171
3
172
1
173
0
174
0
175
0
176
0
177
0
178
0
179
2
271
2
272
2
273
2
274
3
275
0
276
0
277
2
278
44
279
0
280
0
281
0
282
0
283
0
284
8
285
0
286
0
288
0
289
3
290
0
371
-2
372
-2
  0
DIMSTYLE
105
73
330
4
100
AcDbSymbolTableRecord
100
AcDbDimStyleTableRecord
  2
EZDXF
 70
0
 40
1.0
 41
0.175
 42
0.125
 43
3.75
 44
0.375
 45
0.0
 46
0.0
 47
0.0
 48
0.0
 49
2.5
140
0.25
141
2.5
142
0.0
143
0.03937007874
144
100.0
145
0.0
146
0.5
147
0.1
148
0.0
 69
0
 70
0
 71
0
 72
0
 73
0
 74
0
 75
0
 76
0
 77
1
 78
12
 79
3
170
0
171
3
172
1
173
0
174
0
175
0
176
0
177
0
178
0
179
2
271
2
272
2
273
2
274
3
275
0
276
0
277
2
278
46
279
2
280
0
281
0
282
0
283
0
284
8
285
0
286
0
288
1
289
3
290
0
340
4C
342
74
371
-2
372
-2
  0
DIMSTYLE
105
7C
330
4
100
AcDbSymbolTableRecord
100
AcDbDimStyleTableRecord
  2
EZ_M_100_H25_CM
 70
0
 40
1.0
 41
0.25
 42
0.125
 43
3.75
 44
0.375
 45
0.0
 46
0.0
 47
0.0
 48
0.0
 49
2.5
140
0.25
141
2.5
142
0.125
143
0.03937007874
144
100.0
145
0.0
146
0.5
147
0.1
148
0.0
 69
0
 70
0
 71
0
 72
0
 73
0
 74
0
 75
0
 76
0
 77
1
 78
12
 79
3
170
0
171
3
172
1
173
0
174
0
175
0
176
0
177
0
178
0
179
2
271
2
272
2
273
2
274
3
275
0
276
0
277
2
278
46
279
2
280
0
281
0
282
0
283
0
284
8
285
0
286
0
288
1
289
3
290
0
340
4C
371
-2
372
-2
  0
DIMSTYLE
105
7D
330
4
100
AcDbSymbolTableRecord
100
AcDbDimStyleTableRecord
  2
EZ_M_50_H25_CM
 70
0
 40
1.0
 41
0.125
 42
0.0625
 43
3.75
 44
0.1875
 45
0.0
 46
0.0
 47
0.0
 48
0.0
 49
2.5
140
0.125
141
2.5
142
0.0625
143
0.03937007874
144
100.0
145
0.0
146
0.5
147
0.05
148
0.0
 69
0
 70
0
 71
0
 72
0
 73
0
 74
0
 75
0
 76
0
 77
1
 78
12
 79
3
170
0
171
3
172
1
173
0
174
0
175
0
176
0
177
0
178
0
179
2
271
2
272
2
273
2
274
3
275
0
276
0
277
2
278
46
279
2
280
0
281
0
282
0
283
0
284
8
285
0
286
0
288
1
289
3
290
0
340
4C
371
-2
372
-2
  0
DIMSTYLE
105
7E
330
4
100
AcDbSymbolTableRecord
100
AcDbDimStyleTableRecord
  2
EZ_M_25_H25_CM
 70
0
 40
1.0
 41
0.0625
 42
0.03125
 43
3.75
 44
0.09375
 45
0.0
 46
0.0
 47
0.0
 48
0.0
 49
2.5
140
0.0625
141
2.5
142
0.03125
143
0.03937007874
144
100.0
145
0.0
146
0.5
147
0.025
148
0.0
 69
0
 70
0
 71
0
 72
0
 73
0
 74
0
 75
0
 76
0
 77
1
 78
12
 79
3
170
0
171
3
172
1
173
0
174
0
175
0
176
0
177
0
178
0
179
2
271
2
272
2
273
2
274
3
275
0
276
0
277
2
278
46
279
2
280
0
281
0
282
0
283
0
284
8
285
0
286
0
288
1
289
3
290
0
340
4C
371
-2
372
-2
  0
DIMSTYLE
105
7F
330
4
100
AcDbSymbolTableRecord
100
AcDbDimStyleTableRecord
  2
EZ_M_20_H25_CM
 70
0
 40
1.0
 41
0.05
 42
0.025
 43
3.75
 44
0.07500000000000001
 45
0.0
 46
0.0
 47
0.0
 48
0.0
 49
2.5
140
0.05
141
2.5
142
0.025
143
0.03937007874
144
100.0
145
0.0
146
0.5
147
0.020000000000000004
148
0.0
 69
0
 70
0
 71
0
 72
0
 73
0
 74
0
 75
0
 76
0
 77
1
 78
12
 79
3
170
0
171
3
172
1
173
0
174
0
175
0
176
0
177
0
178
0
179
2
271
2
272
2
273
2
274
3
275
0
276
0
277
2
278
46
279
2
280
0
281
0
282
0
283
0
284
8
285
0
286
0
288
1
289
3
290
0
340
4C
371
-2
372
-2
  0
DIMSTYLE
105
80
330
4
100
AcDbSymbolTableRecord
100
AcDbDimStyleTableRecord
  2
EZ_M_10_H25_CM
 70
0
 40
1.0
 41
0.025
 42
0.0125
 43
3.75
 44
0.037500000000000006
 45
0.0
 46
0.0
 47
0.0
 48
0.0
 49
2.5
140
0.025
141
2.5
142
0.0125
143
0.03937007874
144
100.0
145
0.0
146
0.5
147
0.010000000000000002
148
0.0
 69
0
 70
0
 71
0
 72
0
 73
0
 74
0
 75
0
 76
0
 77
1
 78
12
 79
3
170
0
171
3
172
1
173
0
174
0
175
0
176
0
177
0
178
0
179
2
271
2
272
2
273
2
274
3
275
0
276
0
277
2
278
46
279
2
280
0
281
0
282
0
283
0
284
8
285
0
286
0
288
1
289
3
290
0
340
4C
371
-2
372
-2
  0
DIMSTYLE
105
81
330
4
100
AcDbSymbolTableRecord
100
AcDbDimStyleTableRecord
  2
EZ_M_5_H25_CM
 70
0
 40
1.0
 41
0.0125
 42
0.00625
 43
3.75
 44
0.018750000000000003
 45
0.0
 46
0.0
 47
0.0
 48
0.0
 49
2.5
140
0.0125
141
2.5
142
0.00625
143
0.03937007874
144
100.0
145
0.0
146
0.5
147
0.005000000000000001
148
0.0
 69
0
 70
0
 71
0
 72
0
 73
0
 74
0
 75
0
 76
0
 77
1
 78
12
 79
3
170
0
171
3
172
1
173
0
174
0
175
0
176
0
177
0
178
0
179
2
271
2
272
2
273
2
274
3
275
0
276
0
277
2
278
46
279
2
280
0
281
0
282
0
283
0
284
8
285
0
286
0
288
1
289
3
290
0
340
4C
371
-2
372
-2
  0
DIMSTYLE
105
82
330
4
100
AcDbSymbolTableRecord
100
AcDbDimStyleTableRecord
  2
EZ_M_1_H25_CM
 70
0
 40
1.0
 41
0.0025
 42
0.00125
 43
3.75
 44
0.00375
 45
0.0
 46
0.0
 47
0.0
 48
0.0
 49
2.5
140
0.0025
141
2.5
142
0.00125
143
0.03937007874
144
100.0
145
0.0
146
0.5
147
0.001
148
0.0
 69
0
 70
0
 71
0
 72
0
 73
0
 74
0
 75
0
 76
0
 77
1
 78
12
 79
3
170
0
171
3
172
1
173
0
174
0
175
0
176
0
177
0
178
0
179
2
271
2
272
2
273
2
274
3
275
0
276
0
277
2
278
46
279
2
280
0
281
0
282
0
283
0
284
8
285
0
286
0
288
1
289
3
290
0
340
4C
371
-2
372
-2
  0
DIMSTYLE
105
83
330
4
100
AcDbSymbolTableRecord
100
AcDbDimStyleTableRecord
  2
EZ_RADIUS
 70
0
 40
1.0
 41
0.25
 42
0.125
 43
3.75
 44
0.375
 45
0.0
 46
0.0
 47
0.0
 48
0.0
 49
2.5
140
0.25
141
0.0
142
0.0
143
0.03937007874
144
100.0
145
0.0
146
0.5
147
0.1
148
0.0
 69
0
 70
0
 71
0
 72
0
 73
0
 74
0
 75
0
 76
0
 77
1
 78
12
 79
3
170
0
171
3
172
0
173
0
174
0
175
0
176
0
177
0
178
0
179
2
271
2
272
2
273
2
274
3
275
0
276
0
277
2
278
46
279
1
280
0
281
0
282
0
283
0
284
8
285
0
286
0
288
1
289
3
290
0
340
4C
342
84
371
-2
372
-2
  0
DIMSTYLE
105
88
330
4
100
AcDbSymbolTableRecord
100
AcDbDimStyleTableRecord
  2
EZ_RADIUS_INSIDE
 70
0
 40
1.0
 41
0.25
 42
0.125
 43
3.75
 44
0.375
 45
0.0
 46
0.0
 47
0.0
 48
0.0
 49
2.5
140
0.25
141
0.0
142
0.0
143
0.03937007874
144
100.0
145
0.0
146
0.5
147
0.1
148
0.0
 69
0
 70
0
 71
0
 72
0
 73
0
 74
0
 75
0
 76
0
 77
0
 78
12
 79
3
170
0
171
3
172
0
173
0
174
1
175
0
176
0
177
0
178
0
179
2
271
2
272
2
273
2
274
3
275
0
276
0
277
2
278
46
279
0
280
0
281
0
282
0
283
0
284
8
285
0
286
0
288
1
289
0
290
0
340
4C
342
84
371
-2
372
-2
  0
DIMSTYLE
105
89
330
4
100
AcDbSymbolTableRecord
100
AcDbDimStyleTableRecord
  2
EZ_CURVED
 70
0
 40
1.0
 41
0.25
 42
0.125
 43
3.75
 44
0.375
 45
0.0
 46
0.0
 47
0.0
 48
0.0
 49
2.5
140
0.25
141
2.5
142
0.0
143
0.03937007874
144
100.0
145
0.0
146
0.5
147
0.1
148
0.0
 69
0
 70
0
 71
0
 72
0
 73
0
 74
0
 75
0
 76
0
 77
1
 78
12
 79
2
 90
2
170
0
171
3
172
1
173
0
174
0
175
0
176
0
177
0
178
0
179
2
271
2
272
2
273
2
274
3
275
0
276
0
277
2
278
46
279
2
280
0
281
0
282
0
283
0
284
8
285
0
286
0
288
1
289
3
290
0
340
4C
371
-2
372
-2
  0
ENDTAB
  0
TABLE
  2
BLOCK_RECORD
  5
9
330
0
100
AcDbSymbolTable
 70
9
  0
BLOCK_RECORD
  5
17
330
9
100
AcDbSymbolTableRecord
100
AcDbBlockTableRecord
  2
*Model_Space
340
1A
 70
0
280
1
281
0
  0
BLOCK_RECORD
  5
1B
330
9
100
AcDbSymbolTableRecord
100
AcDbBlockTableRecord
  2
*Paper_Space
340
1E
 70
0
280
1
281
0
  0
BLOCK_RECORD
  5
74
330
9
100
AcDbSymbolTableRecord
100
AcDbBlockTableRecord
  2
_ARCHTICK
340
0
 70
0
280
1
281
0
  0
BLOCK_RECORD
  5
78
330
9
100
AcDbSymbolTableRecord
100
AcDbBlockTableRecord
  2
_CLOSEDFILLED
340
0
 70
0
280
1
281
0
  0
BLOCK_RECORD
  5
84
330
9
100
AcDbSymbolTableRecord
100
AcDbBlockTableRecord
  2
_CLOSEDBLANK
340
0
 70
0
280
1
281
0
  0
BLOCK_RECORD
  5
138
330
9
100
AcDbSymbolTableRecord
100
AcDbBlockTableRecord
  2
*D1
340
0
 70
0
280
1
281
0
  0
BLOCK_RECORD
  5
147
330
9
100
AcDbSymbolTableRecord
100
AcDbBlockTableRecord
  2
*D2
340
0
 70
0
280
1
281
0
  0
BLOCK_RECORD
  5
1DA
330
9
100
AcDbSymbolTableRecord
100
AcDbBlockTableRecord
  2
*D3
340
0
 70
0
280
1
281
0
  0
BLOCK_RECORD
  5
1E9
330
9
100
AcDbSymbolTableRecord
100
AcDbBlockTableRecord
  2
*D4
340
0
 70
0
280
1
281
0
  0
ENDTAB
  0
ENDSEC
  0
SECTION
  2
BLOCKS
  0
BLOCK
  5
18
330
17
100
AcDbEntity
  8
0
100
AcDbBlockBegin
  2
*Model_Space
 70
0
 10
0.0
 20
0.0
 30
0.0
  3
*Model_Space
  1

  0
ENDBLK
  5
19
330
17
100
AcDbEntity
  8
0
100
AcDbBlockEnd
  0
BLOCK
  5
1C
330
1B
100
AcDbEntity
  8
0
100
AcDbBlockBegin
  2
*Paper_Space
 70
0
 10
0.0
 20
0.0
 30
0.0
  3
*Paper_Space
  1

  0
ENDBLK
  5
1D
330
1B
100
AcDbEntity
  8
0
100
AcDbBlockEnd
  0
BLOCK
  5
75
330
74
100
AcDbEntity
  8
0
100
AcDbBlockBegin
  2
_ARCHTICK
 70
0
 10
0.0
 20
0.0
 30
0.0
  3
_ARCHTICK
  1

  0
LWPOLYLINE
  5
77
330
74
100
AcDbEntity
  8
0
  6
BYBLOCK
 62
0
100
AcDbPolyline
 90
2
 70
0
 43
0.15
 10
-0.5
 20
-0.5
 10
0.5
 20
0.5
  0
ENDBLK
  5
76
330
74
100
AcDbEntity
  8
0
100
AcDbBlockEnd
  0
BLOCK
  5
79
330
78
100
AcDbEntity
  8
0
100
AcDbBlockBegin
  2
_CLOSEDFILLED
 70
0
 10
0.0
 20
0.0
 30
0.0
  3
_CLOSEDFILLED
  1

  0
SOLID
  5
7B
330
78
100
AcDbEntity
  8
0
  6
BYBLOCK
 62
0
100
AcDbTrace
 10
-1.0
 20
0.16439898372402537
 30
0.0
 11
0.0
 21
0.0
 31
0.0
 12
-1.0
 22
-0.16439898372402537
 32
0.0
 13
-1.0
 23
-0.16439898372402537
 33
0.0
  0
ENDBLK
  5
7A
330
78
100
AcDbEntity
  8
0
100
AcDbBlockEnd
  0
BLOCK
  5
85
330
84
100
AcDbEntity
  8
0
100
AcDbBlockBegin
  2
_CLOSEDBLANK
 70
0
 10
0.0
 20
0.0
 30
0.0
  3
_CLOSEDBLANK
  1

  0
LWPOLYLINE
  5
87
330
84
100
AcDbEntity
  8
0
  6
BYBLOCK
 62
0
100
AcDbPolyline
 90
3
 70
1
 10
-1.0
 20
0.16439898372402537
 10
0.0
 20
0.0
 10
-1.0
 20
-0.16439898372402537
  0
ENDBLK
  5
86
330
84
100
AcDbEntity
  8
0
100
AcDbBlockEnd
  0
BLOCK
  5
139
330
138
100
AcDbEntity
  8
0
100
AcDbBlockBegin
  2
*D1
 70
1
 10
0.0
 20
0.0
 30
0.0
  3
*D1
  1

  0
LINE
  5
13B
330
138
100
AcDbEntity
  8
0
100
AcDbLine
 10
0.0
 20
-0.12499999999999999
 30
0.0
 11
0.0
 21
-1100.3749999999995
 31
0.0
  0
LINE
  5
13C
330
138
100
AcDbEntity
  8
0
100
AcDbLine
 10
7500.0
 20
-0.12499999999999999
 30
0.0
 11
7500.0
 21
-1100.3749999999995
 31
0.0
  0
INSERT
  5
13D
330
138
100
AcDbEntity
  8
A-ANNO-DIMS
100
AcDbBlockReference
  2
_ARCHTICK
 10
0.0
 20
-1099.9999999999995
 30
0.0
 41
0.175
 42
0.175
 50
180.0
  0
INSERT
  5
13F
330
138
100
AcDbEntity
  8
A-ANNO-DIMS
100
AcDbBlockReference
  2
_ARCHTICK
 10
7500.0
 20
-1099.9999999999995
 30
0.0
 41
0.175
 42
0.175
  0
LINE
  5
141
330
138
100
AcDbEntity
  8
0
100
AcDbLine
 10
0.0
 20
-1099.9999999999995
 30
0.0
 11
7500.0
 21
-1099.9999999999995
 31
0.0
  0
MTEXT
  5
142
330
138
100
AcDbEntity
  8
A-ANNO-DIMS
100
AcDbMText
 10
3750.0
 20
-1098.6499999999996
 30
0.0
 40
2.5
 71
5
  1
750000
  7
OpenSansCondensed-Light
  0
POINT
  5
143
330
138
100
AcDbEntity
  8
Defpoints
100
AcDbPoint
 10
0.0
 20
-1099.9999999999995
 30
0.0
  0
POINT
  5
144
330
138
100
AcDbEntity
  8
Defpoints
100
AcDbPoint
 10
0.0
 20
0.0
 30
0.0
  0
POINT
  5
145
330
138
100
AcDbEntity
  8
Defpoints
100
AcDbPoint
 10
7500.0
 20
0.0
 30
0.0
  0
ENDBLK
  5
13A
330
138
100
AcDbEntity
  8
0
100
AcDbBlockEnd
  0
BLOCK
  5
148
330
147
100
AcDbEntity
  8
0
100
AcDbBlockBegin
  2
*D2
 70
1
 10
0.0
 20
0.0
 30
0.0
  3
*D2
  1

  0
LINE
  5
14A
330
147
100
AcDbEntity
  8
0
100
AcDbLine
 10
-0.125
 20
13600.0
 30
0.0
 11
-1100.375
 21
13600.0
 31
0.0
  0
LINE
  5
14B
330
147
100
AcDbEntity
  8
0
100
AcDbLine
 10
-0.125
 20
0.0
 30
0.0
 11
-1100.375
 21
0.0
 31
0.0
  0
INSERT
  5
14C
330
147
100
AcDbEntity
  8
A-ANNO-DIMS
100
AcDbBlockReference
  2
_ARCHTICK
 10
-1100.0
 20
13600.0
 30
0.0
 41
0.175
 42
0.175
 50
270.0
  0
INSERT
  5
14E
330
147
100
AcDbEntity
  8
A-ANNO-DIMS
100
AcDbBlockReference
  2
_ARCHTICK
 10
-1100.0
 20
0.0
 30
0.0
 41
0.175
 42
0.175
 50
90.0
  0
LINE
  5
150
330
147
100
AcDbEntity
  8
0
100
AcDbLine
 10
-1100.0
 20
13600.0
 30
0.0
 11
-1100.0
 21
0.0
 31
0.0
  0
MTEXT
  5
151
330
147
100
AcDbEntity
  8
A-ANNO-DIMS
100
AcDbMText
 10
-1098.65
 20
6800.0
 30
0.0
 40
2.5
 71
5
  1
1360000
  7
OpenSansCondensed-Light
 50
90.0
  0
POINT
  5
152
330
147
100
AcDbEntity
  8
Defpoints
100
AcDbPoint
 10
-1100.0
 20
13600.0
 30
0.0
  0
POINT
  5
153
330
147
100
AcDbEntity
  8
Defpoints
100
AcDbPoint
 10
0.0
 20
13600.0
 30
0.0
  0
POINT
  5
154
330
147
100
AcDbEntity
  8
Defpoints
100
AcDbPoint
 10
0.0
 20
0.0
 30
0.0
  0
ENDBLK
  5
149
330
147
100
AcDbEntity
  8
0
100
AcDbBlockEnd
  0
BLOCK
  5
1DB
330
1DA
100
AcDbEntity
  8
0
100
AcDbBlockBegin
  2
*D3
 70
1
 10
0.0
 20
0.0
 30
0.0
  3
*D3
  1

  0
LINE
  5
1DD
330
1DA
100
AcDbEntity
  8
0
100
AcDbLine
 10
10500.0
 20
-0.12499999999999999
 30
0.0
 11
10500.0
 21
-1100.3749999999995
 31
0.0
  0
LINE
  5
1DE
330
1DA
100
AcDbEntity
  8
0
100
AcDbLine
 10
18000.0
 20
-0.12499999999999999
 30
0.0
 11
18000.0
 21
-1100.3749999999995
 31
0.0
  0
INSERT
  5
1DF
330
1DA
100
AcDbEntity
  8
A-ANNO-DIMS
100
AcDbBlockReference
  2
_ARCHTICK
 10
10500.0
 20
-1099.9999999999995
 30
0.0
 41
0.175
 42
0.175
 50
180.0
  0
INSERT
  5
1E1
330
1DA
100
AcDbEntity
  8
A-ANNO-DIMS
100
AcDbBlockReference
  2
_ARCHTICK
 10
18000.0
 20
-1099.9999999999995
 30
0.0
 41
0.175
 42
0.175
  0
LINE
  5
1E3
330
1DA
100
AcDbEntity
  8
0
100
AcDbLine
 10
10500.0
 20
-1099.9999999999995
 30
0.0
 11
18000.0
 21
-1099.9999999999995
 31
0.0
  0
MTEXT
  5
1E4
330
1DA
100
AcDbEntity
  8
A-ANNO-DIMS
100
AcDbMText
 10
14250.0
 20
-1098.6499999999996
 30
0.0
 40
2.5
 71
5
  1
750000
  7
OpenSansCondensed-Light
  0
POINT
  5
1E5
330
1DA
100
AcDbEntity
  8
Defpoints
100
AcDbPoint
 10
10500.0
 20
-1099.9999999999995
 30
0.0
  0
POINT
  5
1E6
330
1DA
100
AcDbEntity
  8
Defpoints
100
AcDbPoint
 10
10500.0
 20
0.0
 30
0.0
  0
POINT
  5
1E7
330
1DA
100
AcDbEntity
  8
Defpoints
100
AcDbPoint
 10
18000.0
 20
0.0
 30
0.0
  0
ENDBLK
  5
1DC
330
1DA
100
AcDbEntity
  8
0
100
AcDbBlockEnd
  0
BLOCK
  5
1EA
330
1E9
100
AcDbEntity
  8
0
100
AcDbBlockBegin
  2
*D4
 70
1
 10
0.0
 20
0.0
 30
0.0
  3
*D4
  1

  0
LINE
  5
1EC
330
1E9
100
AcDbEntity
  8
0
100
AcDbLine
 10
10499.875
 20
13600.0
 30
0.0
 11
9399.625
 21
13600.0
 31
0.0
  0
LINE
  5
1ED
330
1E9
100
AcDbEntity
  8
0
100
AcDbLine
 10
10499.875
 20
0.0
 30
0.0
 11
9399.625
 21
0.0
 31
0.0
  0
INSERT
  5
1EE
330
1E9
100
AcDbEntity
  8
A-ANNO-DIMS
100
AcDbBlockReference
  2
_ARCHTICK
 10
9400.0
 20
13600.0
 30
0.0
 41
0.175
 42
0.175
 50
270.0
  0
INSERT
  5
1F0
330
1E9
100
AcDbEntity
  8
A-ANNO-DIMS
100
AcDbBlockReference
  2
_ARCHTICK
 10
9400.0
 20
0.0
 30
0.0
 41
0.175
 42
0.175
 50
90.0
  0
LINE
  5
1F2
330
1E9
100
AcDbEntity
  8
0
100
AcDbLine
 10
9400.0
 20
13600.0
 30
0.0
 11
9400.0
 21
0.0
 31
0.0
  0
MTEXT
  5
1F3
330
1E9
100
AcDbEntity
  8
A-ANNO-DIMS
100
AcDbMText
 10
9401.35
 20
6800.0
 30
0.0
 40
2.5
 71
5
  1
1360000
  7
OpenSansCondensed-Light
 50
90.0
  0
POINT
  5
1F4
330
1E9
100
AcDbEntity
  8
Defpoints
100
AcDbPoint
 10
9400.0
 20
13600.0
 30
0.0
  0
POINT
  5
1F5
330
1E9
100
AcDbEntity
  8
Defpoints
100
AcDbPoint
 10
10500.0
 20
13600.0
 30
0.0
  0
POINT
  5
1F6
330
1E9
100
AcDbEntity
  8
Defpoints
100
AcDbPoint
 10
10500.0
 20
0.0
 30
0.0
  0
ENDBLK
  5
1EB
330
1E9
100
AcDbEntity
  8
0
100
AcDbBlockEnd
  0
ENDSEC
  0
SECTION
  2
ENTITIES
  0
LWPOLYLINE
  5
98
330
17
100
AcDbEntity
  8
A-SITE
100
AcDbPolyline
 90
4
 70
1
 10
0.0
 20
0.0
 10
7500.0
 20
0.0
 10
7500.0
 20
-5000.000000000002
 10
0.0
 20
-5000.000000000002
  0
TEXT
  5
99
330
17
100
AcDbEntity
  8
A-SITE
100
AcDbText
 10
6000.0
 20
-2160.000000000001
 30
0.0
 40
200.0
  1
Cochera
 72
1
 11
6000.0
 21
-2160.000000000001
 31
0.0
100
AcDbText
 73
2
  0
TEXT
  5
9A
330
17
100
AcDbEntity
  8
A-SITE
100
AcDbText
 10
6000.0
 20
-2430.000000000001
 30
0.0
 40
130.0
  1
37.5 m2
 72
1
 11
6000.0
 21
-2430.000000000001
 31
0.0
100
AcDbText
 73
2
  0
CIRCLE
  5
9B
330
17
100
AcDbEntity
  8
M-GAS
100
AcDbCircle
 10
7720.0
 20
4350.0
 30
0.0
 40
190.0
  0
CIRCLE
  5
9C
330
17
100
AcDbEntity
  8
M-GAS
100
AcDbCircle
 10
7720.0
 20
4350.0
 30
0.0
 40
113.99999999999999
  0
TEXT
  5
9D
330
17
100
AcDbEntity
  8
M-GAS
100
AcDbText
 10
7720.0
 20
3810.0000000000005
 30
0.0
 40
130.0
  1
Gas 100 lb
 72
1
 11
7720.0
 21
3810.0000000000005
 31
0.0
100
AcDbText
 73
2
  0
LWPOLYLINE
  5
9E
330
17
100
AcDbEntity
  8
P-CIST
100
AcDbPolyline
 90
4
 70
1
 10
2500.0
 20
-900.0000000000003
 10
5000.0
 20
-900.0000000000003
 10
5000.0
 20
-3400.0000000000005
 10
2500.0
 20
-3400.0000000000005
  0
LWPOLYLINE
  5
9F
330
17
100
AcDbEntity
  8
P-CIST
100
AcDbPolyline
 90
25
 70
0
 10
2500.0
 20
-1525.0000000000005
 10
2604.1666666666665
 20
-1581.5685424949245
 10
2708.3333333333335
 20
-1605.0000000000005
 10
2812.5
 20
-1581.5685424949245
 10
2916.6666666666665
 20
-1525.0000000000005
 10
3020.8333333333335
 20
-1468.4314575050762
 10
3125.0
 20
-1445.0000000000002
 10
3229.1666666666665
 20
-1468.4314575050762
 10
3333.3333333333335
 20
-1525.0000000000005
 10
3437.5
 20
-1581.5685424949245
 10
3541.666666666667
 20
-1605.0000000000005
 10
3645.833333333333
 20
-1581.5685424949245
 10
3750.0
 20
-1525.0000000000005
 10
3854.166666666667
 20
-1468.4314575050762
 10
3958.333333333333
 20
-1445.0000000000002
 10
4062.5
 20
-1468.4314575050762
 10
4166.666666666667
 20
-1525.0000000000005
 10
4270.833333333333
 20
-1581.5685424949245
 10
4375.0
 20
-1605.0000000000005
 10
4479.166666666667
 20
-1581.5685424949245
 10
4583.333333333334
 20
-1525.0000000000005
 10
4687.5
 20
-1468.4314575050762
 10
4791.666666666666
 20
-1445.0000000000002
 10
4895.833333333334
 20
-1468.4314575050762
 10
5000.0
 20
-1525.0000000000005
  0
LWPOLYLINE
  5
A0
330
17
100
AcDbEntity
  8
P-CIST
100
AcDbPolyline
 90
25
 70
0
 10
2500.0
 20
-2150.0000000000005
 10
2604.1666666666665
 20
-2206.5685424949243
 10
2708.3333333333335
 20
-2230.0000000000005
 10
2812.5
 20
-2206.5685424949243
 10
2916.6666666666665
 20
-2150.0000000000005
 10
3020.8333333333335
 20
-2093.431457505076
 10
3125.0
 20
-2070.0000000000005
 10
3229.1666666666665
 20
-2093.431457505076
 10
3333.3333333333335
 20
-2150.0000000000005
 10
3437.5
 20
-2206.5685424949243
 10
3541.666666666667
 20
-2230.0000000000005
 10
3645.833333333333
 20
-2206.5685424949243
 10
3750.0
 20
-2150.0000000000005
 10
3854.166666666667
 20
-2093.431457505076
 10
3958.333333333333
 20
-2070.0000000000005
 10
4062.5
 20
-2093.431457505076
 10
4166.666666666667
 20
-2150.0000000000005
 10
4270.833333333333
 20
-2206.5685424949243
 10
4375.0
 20
-2230.0000000000005
 10
4479.166666666667
 20
-2206.5685424949243
 10
4583.333333333334
 20
-2150.0000000000005
 10
4687.5
 20
-2093.431457505076
 10
4791.666666666666
 20
-2070.0000000000005
 10
4895.833333333334
 20
-2093.431457505076
 10
5000.0
 20
-2150.0000000000005
  0
LWPOLYLINE
  5
A1
330
17
100
AcDbEntity
  8
P-CIST
100
AcDbPolyline
 90
25
 70
0
 10
2500.0
 20
-2775.0000000000005
 10
2604.1666666666665
 20
-2831.5685424949224
 10
2708.3333333333335
 20
-2854.9999999999986
 10
2812.5
 20
-2831.5685424949224
 10
2916.6666666666665
 20
-2775.0000000000005
 10
3020.8333333333335
 20
-2718.431457505078
 10
3125.0
 20
-2695.0000000000023
 10
3229.1666666666665
 20
-2718.431457505078
 10
3333.3333333333335
 20
-2775.0000000000005
 10
3437.5
 20
-2831.5685424949224
 10
3541.666666666667
 20
-2854.9999999999986
 10
3645.833333333333
 20
-2831.5685424949224
 10
3750.0
 20
-2775.0000000000005
 10
3854.166666666667
 20
-2718.431457505078
 10
3958.333333333333
 20
-2695.0000000000023
 10
4062.5
 20
-2718.431457505078
 10
4166.666666666667
 20
-2775.0000000000005
 10
4270.833333333333
 20
-2831.5685424949224
 10
4375.0
 20
-2854.9999999999986
 10
4479.166666666667
 20
-2831.5685424949224
 10
4583.333333333334
 20
-2775.0000000000005
 10
4687.5
 20
-2718.431457505078
 10
4791.666666666666
 20
-2695.0000000000023
 10
4895.833333333334
 20
-2718.431457505078
 10
5000.0
 20
-2775.0000000000005
  0
TEXT
  5
A2
330
17
100
AcDbEntity
  8
P-CIST
100
AcDbText
 10
3750.0
 20
-3849.9999999999995
 30
0.0
 40
130.0
  1
Cisterna
 72
1
 11
3750.0
 21
-3849.9999999999995
 31
0.0
100
AcDbText
 73
2
  0
LWPOLYLINE
  5
A3
330
17
100
AcDbEntity
  8
A-WALL
100
AcDbPolyline
 90
4
 70
1
 10
-110.0
 20
13709.999999999998
 10
2960.0
 20
13709.999999999998
 10
2960.0
 20
13490.0
 10
-110.0
 20
13490.0
  0
HATCH
  5
A4
330
17
100
AcDbEntity
  8
A-WALL-PATT
 62
8
100
AcDbHatch
 10
0.0
 20
0.0
 30
0.0
210
0.0
220
0.0
230
1.0
  2
SOLID
 70
1
 71
0
 91
1
 92
3
 72
0
 73
1
 93
4
 10
-110.0
 20
13709.999999999998
 10
2960.0
 20
13709.999999999998
 10
2960.0
 20
13490.0
 10
-110.0
 20
13490.0
 97
0
 75
0
 76
1
 98
0
  0
LWPOLYLINE
  5
A5
330
17
100
AcDbEntity
  8
A-WALL
100
AcDbPolyline
 90
4
 70
1
 10
2740.0
 20
13709.999999999998
 10
2960.0
 20
13709.999999999998
 10
2960.0
 20
9090.0
 10
2740.0
 20
9090.0
  0
HATCH
  5
A6
330
17
100
AcDbEntity
  8
A-WALL-PATT
 62
8
100
AcDbHatch
 10
0.0
 20
0.0
 30
0.0
210
0.0
220
0.0
230
1.0
  2
SOLID
 70
1
 71
0
 91
1
 92
3
 72
0
 73
1
 93
4
 10
2740.0
 20
13709.999999999998
 10
2960.0
 20
13709.999999999998
 10
2960.0
 20
9090.0
 10
2740.0
 20
9090.0
 97
0
 75
0
 76
1
 98
0
  0
LWPOLYLINE
  5
A7
330
17
100
AcDbEntity
  8
A-WALL
100
AcDbPolyline
 90
4
 70
1
 10
2740.0
 20
9309.999999999998
 10
7610.0
 20
9309.999999999998
 10
7610.0
 20
9090.0
 10
2740.0
 20
9090.0
  0
HATCH
  5
A8
330
17
100
AcDbEntity
  8
A-WALL-PATT
 62
8
100
AcDbHatch
 10
0.0
 20
0.0
 30
0.0
210
0.0
220
0.0
230
1.0
  2
SOLID
 70
1
 71
0
 91
1
 92
3
 72
0
 73
1
 93
4
 10
2740.0
 20
9309.999999999998
 10
7610.0
 20
9309.999999999998
 10
7610.0
 20
9090.0
 10
2740.0
 20
9090.0
 97
0
 75
0
 76
1
 98
0
  0
LWPOLYLINE
  5
A9
330
17
100
AcDbEntity
  8
A-WALL
100
AcDbPolyline
 90
4
 70
1
 10
7390.0
 20
9309.999999999998
 10
7610.0
 20
9309.999999999998
 10
7610.0
 20
-109.99999999999943
 10
7390.0
 20
-109.99999999999943
  0
HATCH
  5
AA
330
17
100
AcDbEntity
  8
A-WALL-PATT
 62
8
100
AcDbHatch
 10
0.0
 20
0.0
 30
0.0
210
0.0
220
0.0
230
1.0
  2
SOLID
 70
1
 71
0
 91
1
 92
3
 72
0
 73
1
 93
4
 10
7390.0
 20
9309.999999999998
 10
7610.0
 20
9309.999999999998
 10
7610.0
 20
-109.99999999999943
 10
7390.0
 20
-109.99999999999943
 97
0
 75
0
 76
1
 98
0
  0
LWPOLYLINE
  5
AB
330
17
100
AcDbEntity
  8
A-WALL
100
AcDbPolyline
 90
4
 70
1
 10
-110.0
 20
109.99999999999943
 10
7610.0
 20
109.99999999999943
 10
7610.0
 20
-109.99999999999943
 10
-110.0
 20
-109.99999999999943
  0
HATCH
  5
AC
330
17
100
AcDbEntity
  8
A-WALL-PATT
 62
8
100
AcDbHatch
 10
0.0
 20
0.0
 30
0.0
210
0.0
220
0.0
230
1.0
  2
SOLID
 70
1
 71
0
 91
1
 92
3
 72
0
 73
1
 93
4
 10
-110.0
 20
109.99999999999943
 10
7610.0
 20
109.99999999999943
 10
7610.0
 20
-109.99999999999943
 10
-110.0
 20
-109.99999999999943
 97
0
 75
0
 76
1
 98
0
  0
LWPOLYLINE
  5
AD
330
17
100
AcDbEntity
  8
A-WALL
100
AcDbPolyline
 90
4
 70
1
 10
-110.0
 20
13709.999999999998
 10
110.0
 20
13709.999999999998
 10
110.0
 20
-109.99999999999943
 10
-110.0
 20
-109.99999999999943
  0
HATCH
  5
AE
330
17
100
AcDbEntity
  8
A-WALL-PATT
 62
8
100
AcDbHatch
 10
0.0
 20
0.0
 30
0.0
210
0.0
220
0.0
230
1.0
  2
SOLID
 70
1
 71
0
 91
1
 92
3
 72
0
 73
1
 93
4
 10
-110.0
 20
13709.999999999998
 10
110.0
 20
13709.999999999998
 10
110.0
 20
-109.99999999999943
 10
-110.0
 20
-109.99999999999943
 97
0
 75
0
 76
1
 98
0
  0
LWPOLYLINE
  5
AF
330
17
100
AcDbEntity
  8
A-WALL
100
AcDbPolyline
 90
4
 70
1
 10
-65.0
 20
9265.0
 10
2915.0
 20
9265.0
 10
2915.0
 20
9134.999999999998
 10
-65.0
 20
9134.999999999998
  0
HATCH
  5
B0
330
17
100
AcDbEntity
  8
A-WALL-PATT
 62
8
100
AcDbHatch
 10
0.0
 20
0.0
 30
0.0
210
0.0
220
0.0
230
1.0
  2
SOLID
 70
1
 71
0
 91
1
 92
3
 72
0
 73
1
 93
4
 10
-65.0
 20
9265.0
 10
2915.0
 20
9265.0
 10
2915.0
 20
9134.999999999998
 10
-65.0
 20
9134.999999999998
 97
0
 75
0
 76
1
 98
0
  0
LWPOLYLINE
  5
B1
330
17
100
AcDbEntity
  8
A-WALL
100
AcDbPolyline
 90
4
 70
1
 10
5085.0
 20
9265.0
 10
5215.000000000001
 20
9265.0
 10
5215.000000000001
 20
1535.0000000000002
 10
5085.0
 20
1535.0000000000002
  0
HATCH
  5
B2
330
17
100
AcDbEntity
  8
A-WALL-PATT
 62
8
100
AcDbHatch
 10
0.0
 20
0.0
 30
0.0
210
0.0
220
0.0
230
1.0
  2
SOLID
 70
1
 71
0
 91
1
 92
3
 72
0
 73
1
 93
4
 10
5085.0
 20
9265.0
 10
5215.000000000001
 20
9265.0
 10
5215.000000000001
 20
1535.0000000000002
 10
5085.0
 20
1535.0000000000002
 97
0
 75
0
 76
1
 98
0
  0
LWPOLYLINE
  5
B3
330
17
100
AcDbEntity
  8
A-WALL
100
AcDbPolyline
 90
4
 70
1
 10
5085.0
 20
7815.0
 10
7565.0
 20
7815.0
 10
7565.0
 20
7685.0
 10
5085.0
 20
7685.0
  0
HATCH
  5
B4
330
17
100
AcDbEntity
  8
A-WALL-PATT
 62
8
100
AcDbHatch
 10
0.0
 20
0.0
 30
0.0
210
0.0
220
0.0
230
1.0
  2
SOLID
 70
1
 71
0
 91
1
 92
3
 72
0
 73
1
 93
4
 10
5085.0
 20
7815.0
 10
7565.0
 20
7815.0
 10
7565.0
 20
7685.0
 10
5085.0
 20
7685.0
 97
0
 75
0
 76
1
 98
0
  0
LWPOLYLINE
  5
B5
330
17
100
AcDbEntity
  8
A-WALL
100
AcDbPolyline
 90
4
 70
1
 10
5085.0
 20
5114.999999999998
 10
7565.0
 20
5114.999999999998
 10
7565.0
 20
4984.999999999999
 10
5085.0
 20
4984.999999999999
  0
HATCH
  5
B6
330
17
100
AcDbEntity
  8
A-WALL-PATT
 62
8
100
AcDbHatch
 10
0.0
 20
0.0
 30
0.0
210
0.0
220
0.0
230
1.0
  2
SOLID
 70
1
 71
0
 91
1
 92
3
 72
0
 73
1
 93
4
 10
5085.0
 20
5114.999999999998
 10
7565.0
 20
5114.999999999998
 10
7565.0
 20
4984.999999999999
 10
5085.0
 20
4984.999999999999
 97
0
 75
0
 76
1
 98
0
  0
LWPOLYLINE
  5
B7
330
17
100
AcDbEntity
  8
A-WALL
100
AcDbPolyline
 90
4
 70
1
 10
5085.0
 20
3715.0
 10
7565.0
 20
3715.0
 10
7565.0
 20
3585.000000000001
 10
5085.0
 20
3585.000000000001
  0
HATCH
  5
B8
330
17
100
AcDbEntity
  8
A-WALL-PATT
 62
8
100
AcDbHatch
 10
0.0
 20
0.0
 30
0.0
210
0.0
220
0.0
230
1.0
  2
SOLID
 70
1
 71
0
 91
1
 92
3
 72
0
 73
1
 93
4
 10
5085.0
 20
3715.0
 10
7565.0
 20
3715.0
 10
7565.0
 20
3585.000000000001
 10
5085.0
 20
3585.000000000001
 97
0
 75
0
 76
1
 98
0
  0
LWPOLYLINE
  5
B9
330
17
100
AcDbEntity
  8
A-WALL
100
AcDbPolyline
 90
4
 70
1
 10
5085.0
 20
1664.999999999999
 10
7565.0
 20
1664.999999999999
 10
7565.0
 20
1535.0000000000002
 10
5085.0
 20
1535.0000000000002
  0
HATCH
  5
BA
330
17
100
AcDbEntity
  8
A-WALL-PATT
 62
8
100
AcDbHatch
 10
0.0
 20
0.0
 30
0.0
210
0.0
220
0.0
230
1.0
  2
SOLID
 70
1
 71
0
 91
1
 92
3
 72
0
 73
1
 93
4
 10
5085.0
 20
1664.999999999999
 10
7565.0
 20
1664.999999999999
 10
7565.0
 20
1535.0000000000002
 10
5085.0
 20
1535.0000000000002
 97
0
 75
0
 76
1
 98
0
  0
LWPOLYLINE
  5
BB
330
17
100
AcDbEntity
  8
A-WALL
100
AcDbPolyline
 90
4
 70
1
 10
5585.0
 20
1664.999999999999
 10
5715.000000000001
 20
1664.999999999999
 10
5715.000000000001
 20
-64.9999999999995
 10
5585.0
 20
-64.9999999999995
  0
HATCH
  5
BC
330
17
100
AcDbEntity
  8
A-WALL-PATT
 62
8
100
AcDbHatch
 10
0.0
 20
0.0
 30
0.0
210
0.0
220
0.0
230
1.0
  2
SOLID
 70
1
 71
0
 91
1
 92
3
 72
0
 73
1
 93
4
 10
5585.0
 20
1664.999999999999
 10
5715.000000000001
 20
1664.999999999999
 10
5715.000000000001
 20
-64.9999999999995
 10
5585.0
 20
-64.9999999999995
 97
0
 75
0
 76
1
 98
0
  0
LWPOLYLINE
  5
BD
330
17
100
AcDbEntity
  8
A-WALL
100
AcDbPolyline
 90
4
 70
1
 10
2085.0
 20
4064.9999999999995
 10
2215.0
 20
4064.9999999999995
 10
2215.0
 20
-64.9999999999995
 10
2085.0
 20
-64.9999999999995
  0
HATCH
  5
BE
330
17
100
AcDbEntity
  8
A-WALL-PATT
 62
8
100
AcDbHatch
 10
0.0
 20
0.0
 30
0.0
210
0.0
220
0.0
230
1.0
  2
SOLID
 70
1
 71
0
 91
1
 92
3
 72
0
 73
1
 93
4
 10
2085.0
 20
4064.9999999999995
 10
2215.0
 20
4064.9999999999995
 10
2215.0
 20
-64.9999999999995
 10
2085.0
 20
-64.9999999999995
 97
0
 75
0
 76
1
 98
0
  0
LWPOLYLINE
  5
BF
330
17
100
AcDbEntity
  8
A-WALL
100
AcDbPolyline
 90
4
 70
1
 10
-65.0
 20
4064.9999999999995
 10
2215.0
 20
4064.9999999999995
 10
2215.0
 20
3935.0000000000005
 10
-65.0
 20
3935.0000000000005
  0
HATCH
  5
C0
330
17
100
AcDbEntity
  8
A-WALL-PATT
 62
8
100
AcDbHatch
 10
0.0
 20
0.0
 30
0.0
210
0.0
220
0.0
230
1.0
  2
SOLID
 70
1
 71
0
 91
1
 92
3
 72
0
 73
1
 93
4
 10
-65.0
 20
4064.9999999999995
 10
2215.0
 20
4064.9999999999995
 10
2215.0
 20
3935.0000000000005
 10
-65.0
 20
3935.0000000000005
 97
0
 75
0
 76
1
 98
0
  0
LWPOLYLINE
  5
C1
330
17
100
AcDbEntity
  8
A-WALL
100
AcDbPolyline
 90
4
 70
1
 10
-65.0
 20
914.9999999999991
 10
1915.0
 20
914.9999999999991
 10
1915.0
 20
785.0000000000001
 10
-65.0
 20
785.0000000000001
  0
HATCH
  5
C2
330
17
100
AcDbEntity
  8
A-WALL-PATT
 62
8
100
AcDbHatch
 10
0.0
 20
0.0
 30
0.0
210
0.0
220
0.0
230
1.0
  2
SOLID
 70
1
 71
0
 91
1
 92
3
 72
0
 73
1
 93
4
 10
-65.0
 20
914.9999999999991
 10
1915.0
 20
914.9999999999991
 10
1915.0
 20
785.0000000000001
 10
-65.0
 20
785.0000000000001
 97
0
 75
0
 76
1
 98
0
  0
LWPOLYLINE
  5
C3
330
17
100
AcDbEntity
  8
A-WALL
100
AcDbPolyline
 90
4
 70
1
 10
1785.0000000000002
 20
914.9999999999991
 10
1915.0
 20
914.9999999999991
 10
1915.0
 20
-64.9999999999995
 10
1785.0000000000002
 20
-64.9999999999995
  0
HATCH
  5
C4
330
17
100
AcDbEntity
  8
A-WALL-PATT
 62
8
100
AcDbHatch
 10
0.0
 20
0.0
 30
0.0
210
0.0
220
0.0
230
1.0
  2
SOLID
 70
1
 71
0
 91
1
 92
3
 72
0
 73
1
 93
4
 10
1785.0000000000002
 20
914.9999999999991
 10
1915.0
 20
914.9999999999991
 10
1915.0
 20
-64.9999999999995
 10
1785.0000000000002
 20
-64.9999999999995
 97
0
 75
0
 76
1
 98
0
  0
LINE
  5
C5
330
17
100
AcDbEntity
  8
A-DOOR
100
AcDbLine
 10
900.0
 20
9200.0
 30
0.0
 11
900.0
 21
7899.999999999998
 31
0.0
  0
LWPOLYLINE
  5
C6
330
17
100
AcDbEntity
  8
A-DOOR
100
AcDbPolyline
 90
15
 70
0
 10
2200.0
 20
9200.0
 10
2191.825872861216
 20
9054.4461810657
 10
2167.4062858363714
 20
8910.722785856791
 10
2127.048329400878
 20
8770.637219458282
 10
2071.2595282731454
 20
8635.951139147173
 10
2000.7414589967696
 20
8508.358300530062
 10
1916.380927208439
 20
8389.463257583646
 10
1819.2388155425122
 20
8280.761184457488
 10
1710.536742416354
 20
8183.619072791562
 10
1591.6416994699375
 20
8099.258541003231
 10
1464.048860852826
 20
8028.740471726854
 10
1329.3627805417177
 20
7972.951670599121
 10
1189.2772141432088
 20
7932.593714163629
 10
1045.5538189343001
 20
7908.174127138784
 10
900.0000000000001
 20
7899.999999999998
  0
LINE
  5
C7
330
17
100
AcDbEntity
  8
A-DOOR
100
AcDbLine
 10
2500.0
 20
0.0
 30
0.0
 11
2500.0
 21
1000.0
 31
0.0
  0
LWPOLYLINE
  5
C8
330
17
100
AcDbEntity
  8
A-DOOR
100
AcDbPolyline
 90
15
 70
0
 10
3500.0
 20
0.0
 10
3493.7122098932427
 20
111.96447610330829
 10
3474.9279121818236
 20
222.52093395631434
 10
3443.883330308368
 20
330.2790619551672
 10
3400.968867902419
 20
433.8837391175581
 10
3346.7241992282843
 20
532.0320765153373
 10
3281.83148246803
 20
623.4898018587334
 10
3207.1067811865473
 20
707.1067811865479
 10
3123.4898018587332
 20
781.8314824680303
 10
3032.0320765153365
 20
846.7241992282836
 10
2933.883739117558
 20
900.968867902419
 10
2830.279061955167
 20
943.8833303083669
 10
2722.5209339563144
 20
974.9279121818244
 10
2611.964476103308
 20
993.7122098932427
 10
2500.0
 20
1000.0
  0
LINE
  5
C9
330
17
100
AcDbEntity
  8
A-DOOR
100
AcDbLine
 10
6500.0
 20
0.0
 30
0.0
 11
6500.0
 21
799.999999999999
 31
0.0
  0
LWPOLYLINE
  5
CA
330
17
100
AcDbEntity
  8
A-DOOR
100
AcDbPolyline
 90
15
 70
0
 10
5700.0
 20
0.0
 10
5705.030232085406
 20
89.57158088264627
 10
5720.057670254541
 20
178.01674716505113
 10
5744.893335753306
 20
264.2232495641341
 10
5779.224905678065
 20
347.1069912940461
 10
5822.620640617373
 20
425.62566121226905
 10
5874.534814025576
 20
498.79184148698744
 10
5934.314575050762
 20
565.6854249492387
 10
6001.208158513014
 20
625.4651859744235
 10
6074.374338787731
 20
677.379359382627
 10
6152.893008705954
 20
720.7750943219348
 10
6235.776750435866
 20
755.1066642466945
 10
6321.983252834948
 20
779.9423297454596
 10
6410.428419117354
 20
794.9697679145942
 10
6500.0
 20
799.999999999999
  0
LINE
  5
CB
330
17
100
AcDbEntity
  8
A-GLAZ
100
AcDbLine
 10
0.0
 20
8000.0
 30
0.0
 11
0.0
 21
6199.999999999999
 31
0.0
  0
LINE
  5
CC
330
17
100
AcDbEntity
  8
A-GLAZ
100
AcDbLine
 10
77.0
 20
8000.0
 30
0.0
 11
77.0
 21
6199.999999999999
 31
0.0
  0
LINE
  5
CD
330
17
100
AcDbEntity
  8
A-GLAZ
100
AcDbLine
 10
-77.0
 20
8000.0
 30
0.0
 11
-77.0
 21
6199.999999999999
 31
0.0
  0
LINE
  5
CE
330
17
100
AcDbEntity
  8
A-GLAZ
100
AcDbLine
 10
2850.0
 20
12600.0
 30
0.0
 11
2850.0
 21
10399.999999999998
 31
0.0
  0
LINE
  5
CF
330
17
100
AcDbEntity
  8
A-GLAZ
100
AcDbLine
 10
2927.0
 20
12600.0
 30
0.0
 11
2927.0
 21
10399.999999999998
 31
0.0
  0
LINE
  5
D0
330
17
100
AcDbEntity
  8
A-GLAZ
100
AcDbLine
 10
2773.0
 20
12600.0
 30
0.0
 11
2773.0
 21
10399.999999999998
 31
0.0
  0
LINE
  5
D1
330
17
100
AcDbEntity
  8
A-GLAZ
100
AcDbLine
 10
7500.0
 20
7399.999999999999
 30
0.0
 11
7500.0
 21
5800.0
 31
0.0
  0
LINE
  5
D2
330
17
100
AcDbEntity
  8
A-GLAZ
100
AcDbLine
 10
7577.0
 20
7399.999999999999
 30
0.0
 11
7577.0
 21
5800.0
 31
0.0
  0
LINE
  5
D3
330
17
100
AcDbEntity
  8
A-GLAZ
100
AcDbLine
 10
7423.0
 20
7399.999999999999
 30
0.0
 11
7423.0
 21
5800.0
 31
0.0
  0
LINE
  5
D4
330
17
100
AcDbEntity
  8
A-GLAZ
100
AcDbLine
 10
7500.0
 20
3199.999999999999
 30
0.0
 11
7500.0
 21
2000.0
 31
0.0
  0
LINE
  5
D5
330
17
100
AcDbEntity
  8
A-GLAZ
100
AcDbLine
 10
7577.0
 20
3199.999999999999
 30
0.0
 11
7577.0
 21
2000.0
 31
0.0
  0
LINE
  5
D6
330
17
100
AcDbEntity
  8
A-GLAZ
100
AcDbLine
 10
7423.0
 20
3199.999999999999
 30
0.0
 11
7423.0
 21
2000.0
 31
0.0
  0
LINE
  5
D7
330
17
100
AcDbEntity
  8
A-DOOR
100
AcDbLine
 10
5150.0
 20
7199.999999999999
 30
0.0
 11
4150.0
 21
7199.999999999999
 31
0.0
  0
LWPOLYLINE
  5
D8
330
17
100
AcDbEntity
  8
A-DOOR
100
AcDbPolyline
 90
15
 70
0
 10
5150.0
 20
6199.999999999999
 10
5038.035523896693
 20
6206.287790106757
 10
4927.479066043686
 20
6225.0720878181755
 10
4819.720938044833
 20
6256.116669691632
 10
4716.1162608824425
 20
6299.031132097581
 10
4617.967923484664
 20
6353.275800771715
 10
4526.510198141267
 20
6418.168517531969
 10
4442.893218813452
 20
6492.893218813451
 10
4368.168517531971
 20
6576.510198141266
 10
4303.275800771717
 20
6667.967923484663
 10
4249.031132097582
 20
6766.116260882442
 10
4206.1166696916325
 20
6869.720938044832
 10
4175.072087818176
 20
6977.479066043685
 10
4156.287790106758
 20
7088.035523896691
 10
4150.0
 20
7199.999999999999
  0
LINE
  5
D9
330
17
100
AcDbEntity
  8
A-DOOR
100
AcDbLine
 10
5150.0
 20
8200.0
 30
0.0
 11
4350.0
 21
8200.0
 31
0.0
  0
LWPOLYLINE
  5
DA
330
17
100
AcDbEntity
  8
A-DOOR
100
AcDbPolyline
 90
15
 70
0
 10
5150.0
 20
9000.0
 10
5060.428419117354
 20
8994.969767914594
 10
4971.983252834948
 20
8979.94232974546
 10
4885.776750435866
 20
8955.106664246694
 10
4802.893008705953
 20
8920.775094321936
 10
4724.374338787731
 20
8877.379359382627
 10
4651.208158513013
 20
8825.465185974423
 10
4584.314575050762
 20
8765.685424949237
 10
4524.5348140255755
 20
8698.791841486987
 10
4472.620640617372
 20
8625.625661212269
 10
4429.224905678065
 20
8547.106991294047
 10
4394.893335753306
 20
8464.223249564133
 10
4370.05767025454
 20
8378.016747165053
 10
4355.030232085405
 20
8289.571580882646
 10
4350.0
 20
8200.0
  0
LINE
  5
DB
330
17
100
AcDbEntity
  8
A-DOOR
100
AcDbLine
 10
5150.0
 20
3400.0000000000005
 30
0.0
 11
4350.0
 21
3400.0000000000005
 31
0.0
  0
LWPOLYLINE
  5
DC
330
17
100
AcDbEntity
  8
A-DOOR
100
AcDbPolyline
 90
15
 70
0
 10
5150.0
 20
2599.9999999999995
 10
5060.428419117354
 20
2605.030232085406
 10
4971.983252834948
 20
2620.057670254541
 10
4885.776750435866
 20
2644.8933357533056
 10
4802.893008705953
 20
2679.224905678064
 10
4724.374338787731
 20
2722.6206406173715
 10
4651.208158513013
 20
2774.534814025577
 10
4584.314575050762
 20
2834.3145750507615
 10
4524.5348140255755
 20
2901.208158513013
 10
4472.620640617372
 20
2974.374338787731
 10
4429.224905678065
 20
3052.8930087059543
 10
4394.893335753306
 20
3135.7767504358662
 10
4370.05767025454
 20
3221.9832528349493
 10
4355.030232085405
 20
3310.428419117354
 10
4350.0
 20
3400.0000000000005
  0
LINE
  5
DD
330
17
100
AcDbEntity
  8
A-DOOR
100
AcDbLine
 10
500.0
 20
4000.0
 30
0.0
 11
500.0
 21
3099.9999999999995
 31
0.0
  0
LWPOLYLINE
  5
DE
330
17
100
AcDbEntity
  8
A-DOOR
100
AcDbPolyline
 90
15
 70
0
 10
1400.0
 20
4000.0
 10
1394.3409889039183
 20
3899.2319715070225
 10
1377.435120963641
 20
3799.7311594393163
 10
1349.4949972775307
 20
3702.74884424035
 10
1310.871981112177
 20
3609.504634794197
 10
1262.0517793054557
 20
3521.171131136198
 10
1203.6483342212268
 20
3438.8591783271404
 10
1136.396103067893
 20
3363.6038969321066
 10
1061.14082167286
 20
3296.351665778774
 10
978.8288688638029
 20
3237.9482206945445
 10
890.4953652058023
 20
3189.128018887823
 10
797.2511557596506
 20
3150.50500272247
 10
700.268840560683
 20
3122.564879036359
 10
600.7680284929769
 20
3105.6590110960815
 10
500.0
 20
3099.9999999999995
  0
LINE
  5
DF
330
17
100
AcDbEntity
  8
A-DOOR
100
AcDbLine
 10
400.0
 20
849.9999999999997
 30
0.0
 11
400.0
 21
49.999999999998934
 31
0.0
  0
LWPOLYLINE
  5
E0
330
17
100
AcDbEntity
  8
A-DOOR
100
AcDbPolyline
 90
15
 70
0
 10
1200.0
 20
849.9999999999997
 10
1194.969767914594
 20
760.4284191173533
 10
1179.942329745459
 20
671.9832528349485
 10
1155.106664246694
 20
585.7767504358656
 10
1120.7750943219353
 20
502.89300870595355
 10
1077.3793593826274
 20
424.37433878773055
 10
1025.465185974424
 20
351.2081585130122
 10
965.685424949238
 20
284.31457505076094
 10
898.7918414869869
 20
224.53481402557605
 10
825.6256612122692
 20
172.62064061737271
 10
747.1069912940465
 20
129.22490567806477
 10
664.2232495641338
 20
94.89333575330505
 10
578.0167471650516
 20
70.05767025454013
 10
489.5715808826462
 20
55.03023208540547
 10
400.00000000000006
 20
49.999999999998934
  0
LWPOLYLINE
  5
E1
330
17
100
AcDbEntity
  8
I-FURN
100
AcDbPolyline
 90
4
 70
1
 10
350.0
 20
13200.0
 10
1049.9999999999998
 20
13200.0
 10
1049.9999999999998
 20
12399.999999999998
 10
350.0
 20
12399.999999999998
  0
LWPOLYLINE
  5
E2
330
17
100
AcDbEntity
  8
I-FURN
100
AcDbPolyline
 90
4
 70
1
 10
1600.0
 20
13200.0
 10
2300.0
 20
13200.0
 10
2300.0
 20
12399.999999999998
 10
1600.0
 20
12399.999999999998
  0
LWPOLYLINE
  5
E3
330
17
100
AcDbEntity
  8
I-FURN
100
AcDbPolyline
 90
4
 70
1
 10
300.0
 20
11900.0
 10
899.9999999999999
 20
11900.0
 10
899.9999999999999
 20
10300.0
 10
300.0
 20
10300.0
  0
LWPOLYLINE
  5
E4
330
17
100
AcDbEntity
  8
I-FURN
100
AcDbPolyline
 90
4
 70
1
 10
900.0
 20
8000.0
 10
2000.0
 20
8000.0
 10
2000.0
 20
5600.0
 10
900.0
 20
5600.0
  0
LWPOLYLINE
  5
E5
330
17
100
AcDbEntity
  8
I-FURN
100
AcDbPolyline
 90
4
 70
1
 10
480.00000000000006
 20
7800.0
 10
820.0000000000001
 20
7800.0
 10
820.0000000000001
 20
7460.0
 10
480.00000000000006
 20
7460.0
  0
LWPOLYLINE
  5
E6
330
17
100
AcDbEntity
  8
I-FURN
100
AcDbPolyline
 90
4
 70
1
 10
2080.0
 20
7800.0
 10
2420.0
 20
7800.0
 10
2420.0
 20
7460.0
 10
2080.0
 20
7460.0
  0
LWPOLYLINE
  5
E7
330
17
100
AcDbEntity
  8
I-FURN
100
AcDbPolyline
 90
4
 70
1
 10
480.00000000000006
 20
7080.0
 10
820.0000000000001
 20
7080.0
 10
820.0000000000001
 20
6740.0
 10
480.00000000000006
 20
6740.0
  0
LWPOLYLINE
  5
E8
330
17
100
AcDbEntity
  8
I-FURN
100
AcDbPolyline
 90
4
 70
1
 10
2080.0
 20
7080.0
 10
2420.0
 20
7080.0
 10
2420.0
 20
6740.0
 10
2080.0
 20
6740.0
  0
LWPOLYLINE
  5
E9
330
17
100
AcDbEntity
  8
I-FURN
100
AcDbPolyline
 90
4
 70
1
 10
480.00000000000006
 20
6359.999999999999
 10
820.0000000000001
 20
6359.999999999999
 10
820.0000000000001
 20
6020.0
 10
480.00000000000006
 20
6020.0
  0
LWPOLYLINE
  5
EA
330
17
100
AcDbEntity
  8
I-FURN
100
AcDbPolyline
 90
4
 70
1
 10
2080.0
 20
6359.999999999999
 10
2420.0
 20
6359.999999999999
 10
2420.0
 20
6020.0
 10
2080.0
 20
6020.0
  0
LWPOLYLINE
  5
EB
330
17
100
AcDbEntity
  8
A-KITCHEN
100
AcDbPolyline
 90
4
 70
1
 10
2850.0
 20
9200.0
 10
5150.0
 20
9200.0
 10
5150.0
 20
8579.999999999998
 10
2850.0
 20
8579.999999999998
  0
LWPOLYLINE
  5
EC
330
17
100
AcDbEntity
  8
A-KITCHEN
100
AcDbPolyline
 90
4
 70
1
 10
3350.0
 20
9100.0
 10
4050.0
 20
9100.0
 10
4050.0
 20
8680.0
 10
3350.0
 20
8680.0
  0
CIRCLE
  5
ED
330
17
100
AcDbEntity
  8
A-KITCHEN
100
AcDbCircle
 10
3700.0
 20
8890.0
 30
0.0
 40
105.0
  0
LWPOLYLINE
  5
EE
330
17
100
AcDbEntity
  8
A-KITCHEN
100
AcDbPolyline
 90
4
 70
1
 10
4500.0
 20
9180.0
 10
5080.0
 20
9180.0
 10
5080.0
 20
8600.0
 10
4500.0
 20
8600.0
  0
CIRCLE
  5
EF
330
17
100
AcDbEntity
  8
A-KITCHEN
100
AcDbCircle
 10
4674.0
 20
9006.0
 30
0.0
 40
75.39999999999999
  0
CIRCLE
  5
F0
330
17
100
AcDbEntity
  8
A-KITCHEN
100
AcDbCircle
 10
4906.0
 20
9006.0
 30
0.0
 40
75.39999999999999
  0
CIRCLE
  5
F1
330
17
100
AcDbEntity
  8
A-KITCHEN
100
AcDbCircle
 10
4674.0
 20
8774.0
 30
0.0
 40
75.39999999999999
  0
CIRCLE
  5
F2
330
17
100
AcDbEntity
  8
A-KITCHEN
100
AcDbCircle
 10
4906.0
 20
8774.0
 30
0.0
 40
75.39999999999999
  0
LWPOLYLINE
  5
F3
330
17
100
AcDbEntity
  8
A-KITCHEN
100
AcDbPolyline
 90
4
 70
1
 10
2900.0
 20
8300.0
 10
3520.0
 20
8300.0
 10
3520.0
 20
7640.0
 10
2900.0
 20
7640.0
  0
LINE
  5
F4
330
17
100
AcDbEntity
  8
A-KITCHEN
100
AcDbLine
 10
2900.0
 20
7936.999999999999
 30
0.0
 11
3520.0
 21
7936.999999999999
 31
0.0
  0
LWPOLYLINE
  5
F5
330
17
100
AcDbEntity
  8
A-KITCHEN
100
AcDbPolyline
 90
4
 70
1
 10
3000.0
 20
7300.0
 10
4050.0
 20
7300.0
 10
4050.0
 20
5500.0
 10
3000.0
 20
5500.0
  0
CIRCLE
  5
F6
330
17
100
AcDbEntity
  8
A-KITCHEN
100
AcDbCircle
 10
2750.0
 20
6979.999999999999
 30
0.0
 40
170.0
  0
CIRCLE
  5
F7
330
17
100
AcDbEntity
  8
A-KITCHEN
100
AcDbCircle
 10
2750.0
 20
6399.999999999999
 30
0.0
 40
170.0
  0
CIRCLE
  5
F8
330
17
100
AcDbEntity
  8
A-KITCHEN
100
AcDbCircle
 10
2750.0
 20
5819.999999999999
 30
0.0
 40
170.0
  0
LWPOLYLINE
  5
F9
330
17
100
AcDbEntity
  8
I-FURN
100
AcDbPolyline
 90
4
 70
1
 10
2550.0
 20
3400.0000000000005
 10
3500.0
 20
3400.0000000000005
 10
3500.0
 20
1099.9999999999995
 10
2550.0
 20
1099.9999999999995
  0
LWPOLYLINE
  5
FA
330
17
100
AcDbEntity
  8
I-FURN
100
AcDbPolyline
 90
4
 70
1
 10
2550.0
 20
3400.0000000000005
 10
2787.4999999999995
 20
3400.0000000000005
 10
2787.4999999999995
 20
1099.9999999999995
 10
2550.0
 20
1099.9999999999995
  0
LWPOLYLINE
  5
FB
330
17
100
AcDbEntity
  8
I-FURN
100
AcDbPolyline
 90
4
 70
1
 10
3262.4999999999995
 20
3400.0000000000005
 10
3499.9999999999995
 20
3400.0000000000005
 10
3499.9999999999995
 20
1099.9999999999995
 10
3262.4999999999995
 20
1099.9999999999995
  0
LWPOLYLINE
  5
FC
330
17
100
AcDbEntity
  8
I-FURN
100
AcDbPolyline
 90
4
 70
1
 10
4100.0
 20
3199.999999999999
 10
4949.999999999999
 20
3199.999999999999
 10
4949.999999999999
 20
2299.999999999999
 10
4100.0
 20
2299.999999999999
  0
LWPOLYLINE
  5
FD
330
17
100
AcDbEntity
  8
I-FURN
100
AcDbPolyline
 90
4
 70
1
 10
4100.0
 20
1900.0000000000005
 10
4949.999999999999
 20
1900.0000000000005
 10
4949.999999999999
 20
1000.0
 10
4100.0
 20
1000.0
  0
LWPOLYLINE
  5
FE
330
17
100
AcDbEntity
  8
I-FURN
100
AcDbPolyline
 90
4
 70
1
 10
3700.0
 20
2599.9999999999995
 10
4400.0
 20
2599.9999999999995
 10
4400.0
 20
1699.9999999999993
 10
3700.0
 20
1699.9999999999993
  0
LWPOLYLINE
  5
FF
330
17
100
AcDbEntity
  8
I-FURN
100
AcDbPolyline
 90
4
 70
1
 10
6400.0
 20
7500.0
 10
7400.0
 20
7500.0
 10
7400.0
 20
5600.0
 10
6400.0
 20
5600.0
  0
LWPOLYLINE
  5
100
330
17
100
AcDbEntity
  8
I-FURN
100
AcDbPolyline
 90
4
 70
1
 10
6450.0
 20
7450.0
 10
7350.000000000001
 20
7450.0
 10
7350.000000000001
 20
6918.0
 10
6450.0
 20
6918.0
  0
LWPOLYLINE
  5
101
330
17
100
AcDbEntity
  8
I-FURN
100
AcDbPolyline
 90
4
 70
1
 10
6942.0
 20
9050.0
 10
7278.000000000001
 20
9050.0
 10
7278.000000000001
 20
8846.0
 10
6942.0
 20
8846.0
  0
ELLIPSE
  5
102
330
17
100
AcDbEntity
  8
I-FURN
100
AcDbEllipse
 10
7110.0
 20
8642.0
 30
0.0
 11
210.0
 21
0.0
 31
0.0
 40
0.72
 41
0.0
 42
6.283185307179586
  0
LWPOLYLINE
  5
103
330
17
100
AcDbEntity
  8
I-FURN
100
AcDbPolyline
 90
4
 70
1
 10
6950.0
 20
8250.0
 10
7450.0
 20
8250.0
 10
7450.0
 20
7910.0
 10
6950.0
 20
7910.0
  0
CIRCLE
  5
104
330
17
100
AcDbEntity
  8
I-FURN
100
AcDbCircle
 10
7200.0
 20
8080.0
 30
0.0
 40
85.0
  0
LWPOLYLINE
  5
105
330
17
100
AcDbEntity
  8
I-FURN
100
AcDbPolyline
 90
4
 70
1
 10
5250.0
 20
9100.0
 10
6150.0
 20
9100.0
 10
6150.0
 20
8100.0
 10
5250.0
 20
8100.0
  0
LINE
  5
106
330
17
100
AcDbEntity
  8
I-FURN
100
AcDbLine
 10
5250.0
 20
9100.0
 30
0.0
 11
6150.0
 21
8100.0
 31
0.0
  0
LINE
  5
107
330
17
100
AcDbEntity
  8
I-FURN
100
AcDbLine
 10
6150.0
 20
9100.0
 30
0.0
 11
5250.0
 21
8100.0
 31
0.0
  0
LWPOLYLINE
  5
108
330
17
100
AcDbEntity
  8
I-FURN
100
AcDbPolyline
 90
4
 70
1
 10
5391.999999999999
 20
3500.0
 10
5728.0
 20
3500.0
 10
5728.0
 20
3295.9999999999995
 10
5391.999999999999
 20
3295.9999999999995
  0
ELLIPSE
  5
109
330
17
100
AcDbEntity
  8
I-FURN
100
AcDbEllipse
 10
5560.0
 20
3092.0000000000005
 30
0.0
 11
210.0
 21
0.0
 31
0.0
 40
0.72
 41
0.0
 42
6.283185307179586
  0
LWPOLYLINE
  5
10A
330
17
100
AcDbEntity
  8
I-FURN
100
AcDbPolyline
 90
4
 70
1
 10
5300.0
 20
2500.0
 10
5800.0
 20
2500.0
 10
5800.0
 20
2160.0
 10
5300.0
 20
2160.0
  0
CIRCLE
  5
10B
330
17
100
AcDbEntity
  8
I-FURN
100
AcDbCircle
 10
5550.0
 20
2330.0
 30
0.0
 40
85.0
  0
LWPOLYLINE
  5
10C
330
17
100
AcDbEntity
  8
I-FURN
100
AcDbPolyline
 90
4
 70
1
 10
6500.0
 20
3549.999999999999
 10
7400.0
 20
3549.999999999999
 10
7400.0
 20
1849.9999999999995
 10
6500.0
 20
1849.9999999999995
  0
LINE
  5
10D
330
17
100
AcDbEntity
  8
I-FURN
100
AcDbLine
 10
6500.0
 20
3549.999999999999
 30
0.0
 11
7400.0
 21
1849.9999999999995
 31
0.0
  0
LINE
  5
10E
330
17
100
AcDbEntity
  8
I-FURN
100
AcDbLine
 10
7400.0
 20
3549.999999999999
 30
0.0
 11
6500.0
 21
1849.9999999999995
 31
0.0
  0
LWPOLYLINE
  5
10F
330
17
100
AcDbEntity
  8
I-FURN
100
AcDbPolyline
 90
4
 70
1
 10
192.0
 20
650.0000000000003
 10
528.0
 20
650.0000000000003
 10
528.0
 20
445.9999999999997
 10
192.0
 20
445.9999999999997
  0
ELLIPSE
  5
110
330
17
100
AcDbEntity
  8
I-FURN
100
AcDbEllipse
 10
360.0
 20
242.00000000000088
 30
0.0
 11
210.0
 21
0.0
 31
0.0
 40
0.72
 41
0.0
 42
6.283185307179586
  0
LWPOLYLINE
  5
111
330
17
100
AcDbEntity
  8
I-FURN
100
AcDbPolyline
 90
4
 70
1
 10
900.0
 20
549.999999999999
 10
1400.0
 20
549.999999999999
 10
1400.0
 20
209.9999999999991
 10
900.0
 20
209.9999999999991
  0
CIRCLE
  5
112
330
17
100
AcDbEntity
  8
I-FURN
100
AcDbCircle
 10
1150.0
 20
379.999999999999
 30
0.0
 40
85.0
  0
LWPOLYLINE
  5
113
330
17
100
AcDbEntity
  8
I-FURN
100
AcDbPolyline
 90
4
 70
1
 10
5350.0
 20
4549.999999999999
 10
5970.0
 20
4549.999999999999
 10
5970.0
 20
3889.9999999999986
 10
5350.0
 20
3889.9999999999986
  0
CIRCLE
  5
114
330
17
100
AcDbEntity
  8
I-FURN
100
AcDbCircle
 10
5659.999999999999
 20
4219.999999999999
 30
0.0
 40
173.6
  0
LWPOLYLINE
  5
115
330
17
100
AcDbEntity
  8
I-FURN
100
AcDbPolyline
 90
4
 70
1
 10
6150.0
 20
4549.999999999999
 10
6770.000000000001
 20
4549.999999999999
 10
6770.000000000001
 20
3889.9999999999986
 10
6150.0
 20
3889.9999999999986
  0
CIRCLE
  5
116
330
17
100
AcDbEntity
  8
I-FURN
100
AcDbCircle
 10
6460.0
 20
4219.999999999999
 30
0.0
 40
173.6
  0
LWPOLYLINE
  5
117
330
17
100
AcDbEntity
  8
I-FURN
100
AcDbPolyline
 90
4
 70
1
 10
150.0
 20
3849.9999999999995
 10
2000.0
 20
3849.9999999999995
 10
2000.0
 20
150.00000000000034
 10
150.0
 20
150.00000000000034
  0
LINE
  5
118
330
17
100
AcDbEntity
  8
I-FURN
100
AcDbLine
 10
150.0
 20
3438.8888888888882
 30
0.0
 11
2000.0
 21
3438.8888888888882
 31
0.0
  0
LINE
  5
119
330
17
100
AcDbEntity
  8
I-FURN
100
AcDbLine
 10
150.0
 20
3027.777777777777
 30
0.0
 11
2000.0
 21
3027.777777777777
 31
0.0
  0
LINE
  5
11A
330
17
100
AcDbEntity
  8
I-FURN
100
AcDbLine
 10
150.0
 20
2616.666666666665
 30
0.0
 11
2000.0
 21
2616.666666666665
 31
0.0
  0
LINE
  5
11B
330
17
100
AcDbEntity
  8
I-FURN
100
AcDbLine
 10
150.0
 20
2205.5555555555557
 30
0.0
 11
2000.0
 21
2205.5555555555557
 31
0.0
  0
LINE
  5
11C
330
17
100
AcDbEntity
  8
I-FURN
100
AcDbLine
 10
150.0
 20
1794.4444444444443
 30
0.0
 11
2000.0
 21
1794.4444444444443
 31
0.0
  0
LINE
  5
11D
330
17
100
AcDbEntity
  8
I-FURN
100
AcDbLine
 10
150.0
 20
1383.3333333333328
 30
0.0
 11
2000.0
 21
1383.3333333333328
 31
0.0
  0
LINE
  5
11E
330
17
100
AcDbEntity
  8
I-FURN
100
AcDbLine
 10
150.0
 20
972.2222222222215
 30
0.0
 11
2000.0
 21
972.2222222222215
 31
0.0
  0
LINE
  5
11F
330
17
100
AcDbEntity
  8
I-FURN
100
AcDbLine
 10
150.0
 20
561.11111111111
 30
0.0
 11
2000.0
 21
561.11111111111
 31
0.0
  0
LINE
  5
120
330
17
100
AcDbEntity
  8
I-FURN
100
AcDbLine
 10
1075.0
 20
3480.0000000000005
 30
0.0
 11
1075.0
 21
519.9999999999995
 31
0.0
  0
TEXT
  5
121
330
17
100
AcDbEntity
  8
A-ANNO-TEXT
100
AcDbText
 10
1420.0
 20
11630.0
 30
0.0
 40
180.0
  1
Terraza
 72
1
 11
1420.0
 21
11630.0
 31
0.0
100
AcDbText
 73
2
  0
TEXT
  5
122
330
17
100
AcDbEntity
  8
A-ANNO-TEXT
 62
8
100
AcDbText
 10
1420.0
 20
11380.0
 30
0.0
 40
110.0
  1
12.5 m2
 72
1
 11
1420.0
 21
11380.0
 31
0.0
100
AcDbText
 73
2
  0
TEXT
  5
123
330
17
100
AcDbEntity
  8
A-ANNO-TEXT
100
AcDbText
 10
1500.0
 20
7130.0
 30
0.0
 40
180.0
  1
Comedor
 72
1
 11
1500.0
 21
7130.0
 31
0.0
100
AcDbText
 73
2
  0
TEXT
  5
124
330
17
100
AcDbEntity
  8
A-ANNO-TEXT
 62
8
100
AcDbText
 10
1500.0
 20
6880.0
 30
0.0
 40
110.0
  1
12.0 m2
 72
1
 11
1500.0
 21
6880.0
 31
0.0
100
AcDbText
 73
2
  0
TEXT
  5
125
330
17
100
AcDbEntity
  8
A-KITCHEN
100
AcDbText
 10
3900.0
 20
7329.999999999999
 30
0.0
 40
180.0
  1
Cocina
 72
1
 11
3900.0
 21
7329.999999999999
 31
0.0
100
AcDbText
 73
2
  0
TEXT
  5
126
330
17
100
AcDbEntity
  8
A-ANNO-TEXT
 62
8
100
AcDbText
 10
3900.0
 20
7079.999999999999
 30
0.0
 40
110.0
  1
13.0 m2
 72
1
 11
3900.0
 21
7079.999999999999
 31
0.0
100
AcDbText
 73
2
  0
TEXT
  5
127
330
17
100
AcDbEntity
  8
A-ANNO-TEXT
100
AcDbText
 10
3500.0
 20
2329.999999999999
 30
0.0
 40
180.0
  1
Sala
 72
1
 11
3500.0
 21
2329.999999999999
 31
0.0
100
AcDbText
 73
2
  0
TEXT
  5
128
330
17
100
AcDbEntity
  8
A-ANNO-TEXT
 62
8
100
AcDbText
 10
3500.0
 20
2079.999999999999
 30
0.0
 40
110.0
  1
15.5 m2
 72
1
 11
3500.0
 21
2079.999999999999
 31
0.0
100
AcDbText
 73
2
  0
TEXT
  5
129
330
17
100
AcDbEntity
  8
A-ANNO-TEXT
100
AcDbText
 10
6320.0
 20
8630.0
 30
0.0
 40
180.0
  1
S.S.
 72
1
 11
6320.0
 21
8630.0
 31
0.0
100
AcDbText
 73
2
  0
TEXT
  5
12A
330
17
100
AcDbEntity
  8
A-ANNO-TEXT
 62
8
100
AcDbText
 10
6320.0
 20
8380.0
 30
0.0
 40
110.0
  1
3.4 m2
 72
1
 11
6320.0
 21
8380.0
 31
0.0
100
AcDbText
 73
2
  0
TEXT
  5
12B
330
17
100
AcDbEntity
  8
A-ANNO-TEXT
100
AcDbText
 10
6320.0
 20
6529.999999999999
 30
0.0
 40
180.0
  1
Hab. Servicio
 72
1
 11
6320.0
 21
6529.999999999999
 31
0.0
100
AcDbText
 73
2
  0
TEXT
  5
12C
330
17
100
AcDbEntity
  8
A-ANNO-TEXT
 62
8
100
AcDbText
 10
6320.0
 20
6279.999999999999
 30
0.0
 40
110.0
  1
6.3 m2
 72
1
 11
6320.0
 21
6279.999999999999
 31
0.0
100
AcDbText
 73
2
  0
TEXT
  5
12D
330
17
100
AcDbEntity
  8
A-ANNO-TEXT
100
AcDbText
 10
6320.0
 20
4480.0
 30
0.0
 40
180.0
  1
Lava y plancha
 72
1
 11
6320.0
 21
4480.0
 31
0.0
100
AcDbText
 73
2
  0
TEXT
  5
12E
330
17
100
AcDbEntity
  8
A-ANNO-TEXT
 62
8
100
AcDbText
 10
6320.0
 20
4230.0
 30
0.0
 40
110.0
  1
3.3 m2
 72
1
 11
6320.0
 21
4230.0
 31
0.0
100
AcDbText
 73
2
  0
TEXT
  5
12F
330
17
100
AcDbEntity
  8
A-ANNO-TEXT
100
AcDbText
 10
6320.0
 20
2759.999999999999
 30
0.0
 40
180.0
  1
S.S.
 72
1
 11
6320.0
 21
2759.999999999999
 31
0.0
100
AcDbText
 73
2
  0
TEXT
  5
130
330
17
100
AcDbEntity
  8
A-ANNO-TEXT
 62
8
100
AcDbText
 10
6320.0
 20
2509.999999999999
 30
0.0
 40
110.0
  1
4.8 m2
 72
1
 11
6320.0
 21
2509.999999999999
 31
0.0
100
AcDbText
 73
2
  0
TEXT
  5
131
330
17
100
AcDbEntity
  8
A-ANNO-TEXT
100
AcDbText
 10
6570.0
 20
929.999999999999
 30
0.0
 40
180.0
  1
Estudio
 72
1
 11
6570.0
 21
929.999999999999
 31
0.0
100
AcDbText
 73
2
  0
TEXT
  5
132
330
17
100
AcDbEntity
  8
A-ANNO-TEXT
 62
8
100
AcDbText
 10
6570.0
 20
679.999999999999
 30
0.0
 40
110.0
  1
3.0 m2
 72
1
 11
6570.0
 21
679.999999999999
 31
0.0
100
AcDbText
 73
2
  0
TEXT
  5
133
330
17
100
AcDbEntity
  8
A-ANNO-TEXT
100
AcDbText
 10
1070.0
 20
2630.0
 30
0.0
 40
180.0
  1
Escalera
 72
1
 11
1070.0
 21
2630.0
 31
0.0
100
AcDbText
 73
2
  0
TEXT
  5
134
330
17
100
AcDbEntity
  8
A-ANNO-TEXT
 62
8
100
AcDbText
 10
1070.0
 20
2380.0
 30
0.0
 40
110.0
  1
8.6 m2
 72
1
 11
1070.0
 21
2380.0
 31
0.0
100
AcDbText
 73
2
  0
TEXT
  5
135
330
17
100
AcDbEntity
  8
A-ANNO-TEXT
100
AcDbText
 10
900.0
 20
579.9999999999993
 30
0.0
 40
180.0
  1
S.S. visita
 72
1
 11
900.0
 21
579.9999999999993
 31
0.0
100
AcDbText
 73
2
  0
TEXT
  5
136
330
17
100
AcDbEntity
  8
A-ANNO-TEXT
 62
8
100
AcDbText
 10
900.0
 20
329.9999999999993
 30
0.0
 40
110.0
  1
1.6 m2
 72
1
 11
900.0
 21
329.9999999999993
 31
0.0
100
AcDbText
 73
2
  0
DIMENSION
  5
137
330
17
100
AcDbEntity
  8
A-ANNO-DIMS
100
AcDbDimension
280
0
  2
*D1
  3
EZDXF
 10
0.0
 20
-1099.9999999999995
 30
0.0
 11
3750.0
 21
-1098.6499999999996
 31
0.0
 70
32
 71
5
  1
<>
100
AcDbAlignedDimension
 13
0.0
 23
0.0
 33
0.0
 14
7500.0
 24
0.0
 34
0.0
 50
0.0
100
AcDbRotatedDimension
1001
ACAD
1000
DSTYLE
1002
{
1070
140
1040
2.5
1002
}
  0
DIMENSION
  5
146
330
17
100
AcDbEntity
  8
A-ANNO-DIMS
100
AcDbDimension
280
0
  2
*D2
  3
EZDXF
 10
-1100.0
 20
13600.0
 30
0.0
 11
-1098.65
 21
6800.0
 31
0.0
 70
32
 71
5
  1
<>
100
AcDbAlignedDimension
 13
0.0
 23
13600.0
 33
0.0
 14
0.0
 24
0.0
 34
0.0
 50
90.0
100
AcDbRotatedDimension
1001
ACAD
1000
DSTYLE
1002
{
1070
140
1040
2.5
1002
}
  0
TEXT
  5
155
330
17
100
AcDbEntity
  8
A-ANNO-TEXT
100
AcDbText
 10
0.0
 20
-900.0
 30
0.0
 40
300.0
  1
PRIMERA PLANTA
 11
0.0
 21
-900.0
 31
0.0
100
AcDbText
  0
LWPOLYLINE
  5
156
330
17
100
AcDbEntity
  8
A-ROOF
100
AcDbPolyline
 90
4
 70
1
 10
10500.0
 20
13600.0
 10
13350.0
 20
13600.0
 10
13350.0
 20
9200.0
 10
10500.0
 20
9200.0
  0
HATCH
  5
157
330
17
100
AcDbEntity
  8
A-ROOF
 62
7
100
AcDbHatch
 10
0.0
 20
0.0
 30
0.0
210
0.0
220
0.0
230
1.0
  2
ANSI31
 70
0
 71
0
 91
1
 92
3
 72
0
 73
1
 93
4
 10
10500.0
 20
13600.0
 10
13350.0
 20
13600.0
 10
13350.0
 20
9200.0
 10
10500.0
 20
9200.0
 97
0
 75
1
 76
1
 52
0.0
 41
40.0
 77
0
 78
1
 53
45.0
 43
0.0
 44
0.0
 45
-89.802561212
 46
89.802561212
 79
0
 98
0
  0
LWPOLYLINE
  5
158
330
17
100
AcDbEntity
  8
A-WALL
100
AcDbPolyline
 90
4
 70
1
 10
13240.0
 20
9309.999999999998
 10
18110.0
 20
9309.999999999998
 10
18110.0
 20
9090.0
 10
13240.0
 20
9090.0
  0
HATCH
  5
159
330
17
100
AcDbEntity
  8
A-WALL-PATT
 62
8
100
AcDbHatch
 10
0.0
 20
0.0
 30
0.0
210
0.0
220
0.0
230
1.0
  2
SOLID
 70
1
 71
0
 91
1
 92
3
 72
0
 73
1
 93
4
 10
13240.0
 20
9309.999999999998
 10
18110.0
 20
9309.999999999998
 10
18110.0
 20
9090.0
 10
13240.0
 20
9090.0
 97
0
 75
0
 76
1
 98
0
  0
LWPOLYLINE
  5
15A
330
17
100
AcDbEntity
  8
A-WALL
100
AcDbPolyline
 90
4
 70
1
 10
17890.0
 20
9309.999999999998
 10
18110.0
 20
9309.999999999998
 10
18110.0
 20
-109.99999999999943
 10
17890.0
 20
-109.99999999999943
  0
HATCH
  5
15B
330
17
100
AcDbEntity
  8
A-WALL-PATT
 62
8
100
AcDbHatch
 10
0.0
 20
0.0
 30
0.0
210
0.0
220
0.0
230
1.0
  2
SOLID
 70
1
 71
0
 91
1
 92
3
 72
0
 73
1
 93
4
 10
17890.0
 20
9309.999999999998
 10
18110.0
 20
9309.999999999998
 10
18110.0
 20
-109.99999999999943
 10
17890.0
 20
-109.99999999999943
 97
0
 75
0
 76
1
 98
0
  0
LWPOLYLINE
  5
15C
330
17
100
AcDbEntity
  8
A-WALL
100
AcDbPolyline
 90
4
 70
1
 10
10390.0
 20
109.99999999999943
 10
18110.0
 20
109.99999999999943
 10
18110.0
 20
-109.99999999999943
 10
10390.0
 20
-109.99999999999943
  0
HATCH
  5
15D
330
17
100
AcDbEntity
  8
A-WALL-PATT
 62
8
100
AcDbHatch
 10
0.0
 20
0.0
 30
0.0
210
0.0
220
0.0
230
1.0
  2
SOLID
 70
1
 71
0
 91
1
 92
3
 72
0
 73
1
 93
4
 10
10390.0
 20
109.99999999999943
 10
18110.0
 20
109.99999999999943
 10
18110.0
 20
-109.99999999999943
 10
10390.0
 20
-109.99999999999943
 97
0
 75
0
 76
1
 98
0
  0
LWPOLYLINE
  5
15E
330
17
100
AcDbEntity
  8
A-WALL
100
AcDbPolyline
 90
4
 70
1
 10
10390.0
 20
9309.999999999998
 10
10610.0
 20
9309.999999999998
 10
10610.0
 20
-109.99999999999943
 10
10390.0
 20
-109.99999999999943
  0
HATCH
  5
15F
330
17
100
AcDbEntity
  8
A-WALL-PATT
 62
8
100
AcDbHatch
 10
0.0
 20
0.0
 30
0.0
210
0.0
220
0.0
230
1.0
  2
SOLID
 70
1
 71
0
 91
1
 92
3
 72
0
 73
1
 93
4
 10
10390.0
 20
9309.999999999998
 10
10610.0
 20
9309.999999999998
 10
10610.0
 20
-109.99999999999943
 10
10390.0
 20
-109.99999999999943
 97
0
 75
0
 76
1
 98
0
  0
LWPOLYLINE
  5
160
330
17
100
AcDbEntity
  8
A-WALL
100
AcDbPolyline
 90
4
 70
1
 10
10390.0
 20
9309.999999999998
 10
13460.0
 20
9309.999999999998
 10
13460.0
 20
9090.0
 10
10390.0
 20
9090.0
  0
HATCH
  5
161
330
17
100
AcDbEntity
  8
A-WALL-PATT
 62
8
100
AcDbHatch
 10
0.0
 20
0.0
 30
0.0
210
0.0
220
0.0
230
1.0
  2
SOLID
 70
1
 71
0
 91
1
 92
3
 72
0
 73
1
 93
4
 10
10390.0
 20
9309.999999999998
 10
13460.0
 20
9309.999999999998
 10
13460.0
 20
9090.0
 10
10390.0
 20
9090.0
 97
0
 75
0
 76
1
 98
0
  0
LWPOLYLINE
  5
162
330
17
100
AcDbEntity
  8
A-WALL
100
AcDbPolyline
 90
4
 70
1
 10
13240.0
 20
13709.999999999998
 10
13460.0
 20
13709.999999999998
 10
13460.0
 20
9090.0
 10
13240.0
 20
9090.0
  0
HATCH
  5
163
330
17
100
AcDbEntity
  8
A-WALL-PATT
 62
8
100
AcDbHatch
 10
0.0
 20
0.0
 30
0.0
210
0.0
220
0.0
230
1.0
  2
SOLID
 70
1
 71
0
 91
1
 92
3
 72
0
 73
1
 93
4
 10
13240.0
 20
13709.999999999998
 10
13460.0
 20
13709.999999999998
 10
13460.0
 20
9090.0
 10
13240.0
 20
9090.0
 97
0
 75
0
 76
1
 98
0
  0
LWPOLYLINE
  5
164
330
17
100
AcDbEntity
  8
A-WALL
100
AcDbPolyline
 90
4
 70
1
 10
10390.0
 20
13709.999999999998
 10
13460.0
 20
13709.999999999998
 10
13460.0
 20
13490.0
 10
10390.0
 20
13490.0
  0
HATCH
  5
165
330
17
100
AcDbEntity
  8
A-WALL-PATT
 62
8
100
AcDbHatch
 10
0.0
 20
0.0
 30
0.0
210
0.0
220
0.0
230
1.0
  2
SOLID
 70
1
 71
0
 91
1
 92
3
 72
0
 73
1
 93
4
 10
10390.0
 20
13709.999999999998
 10
13460.0
 20
13709.999999999998
 10
13460.0
 20
13490.0
 10
10390.0
 20
13490.0
 97
0
 75
0
 76
1
 98
0
  0
LWPOLYLINE
  5
166
330
17
100
AcDbEntity
  8
A-WALL
100
AcDbPolyline
 90
4
 70
1
 10
13885.0
 20
9265.0
 10
14015.0
 20
9265.0
 10
14015.0
 20
5535.0
 10
13885.0
 20
5535.0
  0
HATCH
  5
167
330
17
100
AcDbEntity
  8
A-WALL-PATT
 62
8
100
AcDbHatch
 10
0.0
 20
0.0
 30
0.0
210
0.0
220
0.0
230
1.0
  2
SOLID
 70
1
 71
0
 91
1
 92
3
 72
0
 73
1
 93
4
 10
13885.0
 20
9265.0
 10
14015.0
 20
9265.0
 10
14015.0
 20
5535.0
 10
13885.0
 20
5535.0
 97
0
 75
0
 76
1
 98
0
  0
LWPOLYLINE
  5
168
330
17
100
AcDbEntity
  8
A-WALL
100
AcDbPolyline
 90
4
 70
1
 10
10435.0
 20
5665.0
 10
14015.0
 20
5665.0
 10
14015.0
 20
5535.0
 10
10435.0
 20
5535.0
  0
HATCH
  5
169
330
17
100
AcDbEntity
  8
A-WALL-PATT
 62
8
100
AcDbHatch
 10
0.0
 20
0.0
 30
0.0
210
0.0
220
0.0
230
1.0
  2
SOLID
 70
1
 71
0
 91
1
 92
3
 72
0
 73
1
 93
4
 10
10435.0
 20
5665.0
 10
14015.0
 20
5665.0
 10
14015.0
 20
5535.0
 10
10435.0
 20
5535.0
 97
0
 75
0
 76
1
 98
0
  0
LWPOLYLINE
  5
16A
330
17
100
AcDbEntity
  8
A-WALL
100
AcDbPolyline
 90
4
 70
1
 10
13885.0
 20
5665.0
 10
18065.0
 20
5665.0
 10
18065.0
 20
5535.0
 10
13885.0
 20
5535.0
  0
HATCH
  5
16B
330
17
100
AcDbEntity
  8
A-WALL-PATT
 62
8
100
AcDbHatch
 10
0.0
 20
0.0
 30
0.0
210
0.0
220
0.0
230
1.0
  2
SOLID
 70
1
 71
0
 91
1
 92
3
 72
0
 73
1
 93
4
 10
13885.0
 20
5665.0
 10
18065.0
 20
5665.0
 10
18065.0
 20
5535.0
 10
13885.0
 20
5535.0
 97
0
 75
0
 76
1
 98
0
  0
LWPOLYLINE
  5
16C
330
17
100
AcDbEntity
  8
A-WALL
100
AcDbPolyline
 90
4
 70
1
 10
12335.0
 20
5665.0
 10
12465.0
 20
5665.0
 10
12465.0
 20
3535.0
 10
12335.0
 20
3535.0
  0
HATCH
  5
16D
330
17
100
AcDbEntity
  8
A-WALL-PATT
 62
8
100
AcDbHatch
 10
0.0
 20
0.0
 30
0.0
210
0.0
220
0.0
230
1.0
  2
SOLID
 70
1
 71
0
 91
1
 92
3
 72
0
 73
1
 93
4
 10
12335.0
 20
5665.0
 10
12465.0
 20
5665.0
 10
12465.0
 20
3535.0
 10
12335.0
 20
3535.0
 97
0
 75
0
 76
1
 98
0
  0
LWPOLYLINE
  5
16E
330
17
100
AcDbEntity
  8
A-WALL
100
AcDbPolyline
 90
4
 70
1
 10
10435.0
 20
3664.999999999999
 10
12465.0
 20
3664.999999999999
 10
12465.0
 20
3535.0
 10
10435.0
 20
3535.0
  0
HATCH
  5
16F
330
17
100
AcDbEntity
  8
A-WALL-PATT
 62
8
100
AcDbHatch
 10
0.0
 20
0.0
 30
0.0
210
0.0
220
0.0
230
1.0
  2
SOLID
 70
1
 71
0
 91
1
 92
3
 72
0
 73
1
 93
4
 10
10435.0
 20
3664.999999999999
 10
12465.0
 20
3664.999999999999
 10
12465.0
 20
3535.0
 10
10435.0
 20
3535.0
 97
0
 75
0
 76
1
 98
0
  0
LWPOLYLINE
  5
170
330
17
100
AcDbEntity
  8
A-WALL
100
AcDbPolyline
 90
4
 70
1
 10
15135.0
 20
5665.0
 10
15265.0
 20
5665.0
 10
15265.0
 20
3535.0
 10
15135.0
 20
3535.0
  0
HATCH
  5
171
330
17
100
AcDbEntity
  8
A-WALL-PATT
 62
8
100
AcDbHatch
 10
0.0
 20
0.0
 30
0.0
210
0.0
220
0.0
230
1.0
  2
SOLID
 70
1
 71
0
 91
1
 92
3
 72
0
 73
1
 93
4
 10
15135.0
 20
5665.0
 10
15265.0
 20
5665.0
 10
15265.0
 20
3535.0
 10
15135.0
 20
3535.0
 97
0
 75
0
 76
1
 98
0
  0
LWPOLYLINE
  5
172
330
17
100
AcDbEntity
  8
A-WALL
100
AcDbPolyline
 90
4
 70
1
 10
15135.0
 20
3664.999999999999
 10
18065.0
 20
3664.999999999999
 10
18065.0
 20
3535.0
 10
15135.0
 20
3535.0
  0
HATCH
  5
173
330
17
100
AcDbEntity
  8
A-WALL-PATT
 62
8
100
AcDbHatch
 10
0.0
 20
0.0
 30
0.0
210
0.0
220
0.0
230
1.0
  2
SOLID
 70
1
 71
0
 91
1
 92
3
 72
0
 73
1
 93
4
 10
15135.0
 20
3664.999999999999
 10
18065.0
 20
3664.999999999999
 10
18065.0
 20
3535.0
 10
15135.0
 20
3535.0
 97
0
 75
0
 76
1
 98
0
  0
LWPOLYLINE
  5
174
330
17
100
AcDbEntity
  8
A-WALL
100
AcDbPolyline
 90
4
 70
1
 10
12535.0
 20
3664.999999999999
 10
12665.0
 20
3664.999999999999
 10
12665.0
 20
1335.000000000001
 10
12535.0
 20
1335.000000000001
  0
HATCH
  5
175
330
17
100
AcDbEntity
  8
A-WALL-PATT
 62
8
100
AcDbHatch
 10
0.0
 20
0.0
 30
0.0
210
0.0
220
0.0
230
1.0
  2
SOLID
 70
1
 71
0
 91
1
 92
3
 72
0
 73
1
 93
4
 10
12535.0
 20
3664.999999999999
 10
12665.0
 20
3664.999999999999
 10
12665.0
 20
1335.000000000001
 10
12535.0
 20
1335.000000000001
 97
0
 75
0
 76
1
 98
0
  0
LWPOLYLINE
  5
176
330
17
100
AcDbEntity
  8
A-WALL
100
AcDbPolyline
 90
4
 70
1
 10
10435.0
 20
3664.999999999999
 10
12665.0
 20
3664.999999999999
 10
12665.0
 20
3535.0
 10
10435.0
 20
3535.0
  0
HATCH
  5
177
330
17
100
AcDbEntity
  8
A-WALL-PATT
 62
8
100
AcDbHatch
 10
0.0
 20
0.0
 30
0.0
210
0.0
220
0.0
230
1.0
  2
SOLID
 70
1
 71
0
 91
1
 92
3
 72
0
 73
1
 93
4
 10
10435.0
 20
3664.999999999999
 10
12665.0
 20
3664.999999999999
 10
12665.0
 20
3535.0
 10
10435.0
 20
3535.0
 97
0
 75
0
 76
1
 98
0
  0
LWPOLYLINE
  5
178
330
17
100
AcDbEntity
  8
A-WALL
100
AcDbPolyline
 90
4
 70
1
 10
10435.0
 20
1464.9999999999998
 10
12665.0
 20
1464.9999999999998
 10
12665.0
 20
1335.000000000001
 10
10435.0
 20
1335.000000000001
  0
HATCH
  5
179
330
17
100
AcDbEntity
  8
A-WALL-PATT
 62
8
100
AcDbHatch
 10
0.0
 20
0.0
 30
0.0
210
0.0
220
0.0
230
1.0
  2
SOLID
 70
1
 71
0
 91
1
 92
3
 72
0
 73
1
 93
4
 10
10435.0
 20
1464.9999999999998
 10
12665.0
 20
1464.9999999999998
 10
12665.0
 20
1335.000000000001
 10
10435.0
 20
1335.000000000001
 97
0
 75
0
 76
1
 98
0
  0
LWPOLYLINE
  5
17A
330
17
100
AcDbEntity
  8
A-WALL
100
AcDbPolyline
 90
4
 70
1
 10
10435.0
 20
1464.9999999999998
 10
14165.0
 20
1464.9999999999998
 10
14165.0
 20
1335.000000000001
 10
10435.0
 20
1335.000000000001
  0
HATCH
  5
17B
330
17
100
AcDbEntity
  8
A-WALL-PATT
 62
8
100
AcDbHatch
 10
0.0
 20
0.0
 30
0.0
210
0.0
220
0.0
230
1.0
  2
SOLID
 70
1
 71
0
 91
1
 92
3
 72
0
 73
1
 93
4
 10
10435.0
 20
1464.9999999999998
 10
14165.0
 20
1464.9999999999998
 10
14165.0
 20
1335.000000000001
 10
10435.0
 20
1335.000000000001
 97
0
 75
0
 76
1
 98
0
  0
LWPOLYLINE
  5
17C
330
17
100
AcDbEntity
  8
A-WALL
100
AcDbPolyline
 90
4
 70
1
 10
14035.0
 20
2264.9999999999986
 10
14165.0
 20
2264.9999999999986
 10
14165.0
 20
-64.9999999999995
 10
14035.0
 20
-64.9999999999995
  0
HATCH
  5
17D
330
17
100
AcDbEntity
  8
A-WALL-PATT
 62
8
100
AcDbHatch
 10
0.0
 20
0.0
 30
0.0
210
0.0
220
0.0
230
1.0
  2
SOLID
 70
1
 71
0
 91
1
 92
3
 72
0
 73
1
 93
4
 10
14035.0
 20
2264.9999999999986
 10
14165.0
 20
2264.9999999999986
 10
14165.0
 20
-64.9999999999995
 10
14035.0
 20
-64.9999999999995
 97
0
 75
0
 76
1
 98
0
  0
LWPOLYLINE
  5
17E
330
17
100
AcDbEntity
  8
A-WALL
100
AcDbPolyline
 90
4
 70
1
 10
14035.0
 20
2264.9999999999986
 10
18065.0
 20
2264.9999999999986
 10
18065.0
 20
2135.0
 10
14035.0
 20
2135.0
  0
HATCH
  5
17F
330
17
100
AcDbEntity
  8
A-WALL-PATT
 62
8
100
AcDbHatch
 10
0.0
 20
0.0
 30
0.0
210
0.0
220
0.0
230
1.0
  2
SOLID
 70
1
 71
0
 91
1
 92
3
 72
0
 73
1
 93
4
 10
14035.0
 20
2264.9999999999986
 10
18065.0
 20
2264.9999999999986
 10
18065.0
 20
2135.0
 10
14035.0
 20
2135.0
 97
0
 75
0
 76
1
 98
0
  0
LWPOLYLINE
  5
180
330
17
100
AcDbEntity
  8
A-WALL
100
AcDbPolyline
 90
4
 70
1
 10
16134.999999999998
 20
2264.9999999999986
 10
16265.0
 20
2264.9999999999986
 10
16265.0
 20
-64.9999999999995
 10
16134.999999999998
 20
-64.9999999999995
  0
HATCH
  5
181
330
17
100
AcDbEntity
  8
A-WALL-PATT
 62
8
100
AcDbHatch
 10
0.0
 20
0.0
 30
0.0
210
0.0
220
0.0
230
1.0
  2
SOLID
 70
1
 71
0
 91
1
 92
3
 72
0
 73
1
 93
4
 10
16134.999999999998
 20
2264.9999999999986
 10
16265.0
 20
2264.9999999999986
 10
16265.0
 20
-64.9999999999995
 10
16134.999999999998
 20
-64.9999999999995
 97
0
 75
0
 76
1
 98
0
  0
LINE
  5
182
330
17
100
AcDbEntity
  8
A-DOOR
100
AcDbLine
 10
11700.0
 20
5600.0
 30
0.0
 11
11700.0
 21
6399.999999999999
 31
0.0
  0
LWPOLYLINE
  5
183
330
17
100
AcDbEntity
  8
A-DOOR
100
AcDbPolyline
 90
15
 70
0
 10
12500.0
 20
5600.0
 10
12494.969767914594
 20
5689.571580882646
 10
12479.94232974546
 20
5778.016747165051
 10
12455.106664246694
 20
5864.223249564134
 10
12420.775094321936
 20
5947.106991294046
 10
12377.379359382629
 20
6025.625661212269
 10
12325.465185974423
 20
6098.791841486986
 10
12265.685424949237
 20
6165.685424949237
 10
12198.791841486987
 20
6225.465185974424
 10
12125.625661212269
 20
6277.379359382627
 10
12047.106991294047
 20
6320.775094321934
 10
11964.223249564133
 20
6355.106664246693
 10
11878.016747165053
 20
6379.942329745459
 10
11789.571580882646
 20
6394.969767914594
 10
11700.0
 20
6399.999999999999
  0
LINE
  5
184
330
17
100
AcDbEntity
  8
A-DOOR
100
AcDbLine
 10
16600.0
 20
5600.0
 30
0.0
 11
16600.0
 21
6399.999999999999
 31
0.0
  0
LWPOLYLINE
  5
185
330
17
100
AcDbEntity
  8
A-DOOR
100
AcDbPolyline
 90
15
 70
0
 10
15800.0
 20
5600.0
 10
15805.030232085406
 20
5689.571580882646
 10
15820.057670254542
 20
5778.016747165051
 10
15844.893335753304
 20
5864.223249564133
 10
15879.224905678066
 20
5947.106991294046
 10
15922.620640617373
 20
6025.625661212269
 10
15974.534814025576
 20
6098.791841486986
 10
16034.314575050761
 20
6165.685424949237
 10
16101.208158513014
 20
6225.465185974424
 10
16174.37433878773
 20
6277.379359382627
 10
16252.893008705954
 20
6320.775094321934
 10
16335.776750435865
 20
6355.106664246693
 10
16421.983252834947
 20
6379.942329745459
 10
16510.428419117354
 20
6394.969767914594
 10
16600.0
 20
6399.999999999999
  0
LINE
  5
186
330
17
100
AcDbEntity
  8
A-DOOR
100
AcDbLine
 10
11100.0
 20
3599.9999999999995
 30
0.0
 11
11100.0
 21
4400.0
 31
0.0
  0
LWPOLYLINE
  5
187
330
17
100
AcDbEntity
  8
A-DOOR
100
AcDbPolyline
 90
15
 70
0
 10
11900.0
 20
3599.9999999999995
 10
11894.969767914594
 20
3689.571580882646
 10
11879.94232974546
 20
3778.0167471650507
 10
11855.106664246694
 20
3864.2232495641338
 10
11820.775094321934
 20
3947.1069912940457
 10
11777.379359382627
 20
4025.625661212269
 10
11725.465185974423
 20
4098.791841486987
 10
11665.685424949239
 20
4165.685424949238
 10
11598.791841486987
 20
4225.465185974424
 10
11525.625661212269
 20
4277.379359382627
 10
11447.106991294046
 20
4320.775094321934
 10
11364.223249564133
 20
4355.106664246694
 10
11278.016747165051
 20
4379.94232974546
 10
11189.571580882646
 20
4394.969767914594
 10
11100.0
 20
4400.0
  0
LINE
  5
188
330
17
100
AcDbEntity
  8
A-DOOR
100
AcDbLine
 10
15900.0
 20
3599.9999999999995
 30
0.0
 11
15900.0
 21
4400.0
 31
0.0
  0
LWPOLYLINE
  5
189
330
17
100
AcDbEntity
  8
A-DOOR
100
AcDbPolyline
 90
15
 70
0
 10
16700.0
 20
3599.9999999999995
 10
16694.969767914594
 20
3689.571580882646
 10
16679.94232974546
 20
3778.0167471650507
 10
16655.106664246694
 20
3864.2232495641338
 10
16620.775094321936
 20
3947.1069912940457
 10
16577.379359382627
 20
4025.625661212269
 10
16525.465185974426
 20
4098.791841486987
 10
16465.68542494924
 20
4165.685424949236
 10
16398.791841486986
 20
4225.465185974424
 10
16325.62566121227
 20
4277.379359382627
 10
16247.106991294046
 20
4320.775094321934
 10
16164.223249564135
 20
4355.106664246694
 10
16078.016747165051
 20
4379.94232974546
 10
15989.571580882646
 20
4394.969767914594
 10
15900.0
 20
4400.0
  0
LINE
  5
18A
330
17
100
AcDbEntity
  8
A-DOOR
100
AcDbLine
 10
14100.0
 20
1699.9999999999993
 30
0.0
 11
14899.999999999998
 21
1699.9999999999993
 31
0.0
  0
LWPOLYLINE
  5
18B
330
17
100
AcDbEntity
  8
A-DOOR
100
AcDbPolyline
 90
15
 70
0
 10
14100.0
 20
900.0000000000003
 10
14189.571580882646
 20
905.0302320854069
 10
14278.016747165051
 20
920.0576702545416
 10
14364.223249564133
 20
944.8933357533065
 10
14447.106991294046
 20
979.2249056780644
 10
14525.625661212269
 20
1022.6206406173724
 10
14598.791841486986
 20
1074.5348140255758
 10
14665.685424949239
 20
1134.3145750507624
 10
14725.465185974423
 20
1201.2081585130136
 10
14777.379359382627
 20
1274.3743387877303
 10
14820.775094321934
 20
1352.8930087059532
 10
14855.106664246694
 20
1435.776750435865
 10
14879.942329745458
 20
1521.9832528349482
 10
14894.969767914592
 20
1610.428419117353
 10
14899.999999999998
 20
1699.9999999999993
  0
LINE
  5
18C
330
17
100
AcDbEntity
  8
A-DOOR
100
AcDbLine
 10
14900.0
 20
2199.999999999999
 30
0.0
 11
14900.0
 21
1400.0000000000005
 31
0.0
  0
LWPOLYLINE
  5
18D
330
17
100
AcDbEntity
  8
A-DOOR
100
AcDbPolyline
 90
15
 70
0
 10
15700.0
 20
2199.999999999999
 10
15694.969767914594
 20
2110.428419117353
 10
15679.942329745458
 20
2021.9832528349482
 10
15655.106664246696
 20
1935.776750435865
 10
15620.775094321934
 20
1852.8930087059532
 10
15577.379359382627
 20
1774.3743387877303
 10
15525.465185974424
 20
1701.2081585130118
 10
15465.685424949239
 20
1634.3145750507606
 10
15398.791841486986
 20
1574.5348140255758
 10
15325.625661212269
 20
1522.6206406173724
 10
15247.106991294046
 20
1479.2249056780645
 10
15164.223249564135
 20
1444.8933357533047
 10
15078.016747165051
 20
1420.0576702545397
 10
14989.571580882646
 20
1405.030232085405
 10
14900.0
 20
1400.0000000000005
  0
LINE
  5
18E
330
17
100
AcDbEntity
  8
A-GLAZ
100
AcDbLine
 10
11400.0
 20
0.0
 30
0.0
 11
12400.0
 21
0.0
 31
0.0
  0
LINE
  5
18F
330
17
100
AcDbEntity
  8
A-GLAZ
100
AcDbLine
 10
11400.0
 20
-76.99999999999996
 30
0.0
 11
12400.0
 21
-76.99999999999996
 31
0.0
  0
LINE
  5
190
330
17
100
AcDbEntity
  8
A-GLAZ
100
AcDbLine
 10
11400.0
 20
76.99999999999996
 30
0.0
 11
12400.0
 21
76.99999999999996
 31
0.0
  0
LINE
  5
191
330
17
100
AcDbEntity
  8
A-GLAZ
100
AcDbLine
 10
10500.0
 20
8600.0
 30
0.0
 11
10500.0
 21
6800.0
 31
0.0
  0
LINE
  5
192
330
17
100
AcDbEntity
  8
A-GLAZ
100
AcDbLine
 10
10577.0
 20
8600.0
 30
0.0
 11
10577.0
 21
6800.0
 31
0.0
  0
LINE
  5
193
330
17
100
AcDbEntity
  8
A-GLAZ
100
AcDbLine
 10
10423.0
 20
8600.0
 30
0.0
 11
10423.0
 21
6800.0
 31
0.0
  0
LINE
  5
194
330
17
100
AcDbEntity
  8
A-GLAZ
100
AcDbLine
 10
18000.0
 20
8600.0
 30
0.0
 11
18000.0
 21
6800.0
 31
0.0
  0
LINE
  5
195
330
17
100
AcDbEntity
  8
A-GLAZ
100
AcDbLine
 10
18077.0
 20
8600.0
 30
0.0
 11
18077.0
 21
6800.0
 31
0.0
  0
LINE
  5
196
330
17
100
AcDbEntity
  8
A-GLAZ
100
AcDbLine
 10
17923.0
 20
8600.0
 30
0.0
 11
17923.0
 21
6800.0
 31
0.0
  0
LINE
  5
197
330
17
100
AcDbEntity
  8
A-GLAZ
100
AcDbLine
 10
10500.0
 20
1599.9999999999995
 30
0.0
 11
10500.0
 21
400.00000000000034
 31
0.0
  0
LINE
  5
198
330
17
100
AcDbEntity
  8
A-GLAZ
100
AcDbLine
 10
10577.0
 20
1599.9999999999995
 30
0.0
 11
10577.0
 21
400.00000000000034
 31
0.0
  0
LINE
  5
199
330
17
100
AcDbEntity
  8
A-GLAZ
100
AcDbLine
 10
10423.0
 20
1599.9999999999995
 30
0.0
 11
10423.0
 21
400.00000000000034
 31
0.0
  0
LINE
  5
19A
330
17
100
AcDbEntity
  8
A-GLAZ
100
AcDbLine
 10
18000.0
 20
5000.0
 30
0.0
 11
18000.0
 21
3799.999999999999
 31
0.0
  0
LINE
  5
19B
330
17
100
AcDbEntity
  8
A-GLAZ
100
AcDbLine
 10
18077.0
 20
5000.0
 30
0.0
 11
18077.0
 21
3799.999999999999
 31
0.0
  0
LINE
  5
19C
330
17
100
AcDbEntity
  8
A-GLAZ
100
AcDbLine
 10
17923.0
 20
5000.0
 30
0.0
 11
17923.0
 21
3799.999999999999
 31
0.0
  0
LWPOLYLINE
  5
19D
330
17
100
AcDbEntity
  8
I-FURN
100
AcDbPolyline
 90
4
 70
1
 10
10800.0
 20
9050.0
 10
12200.0
 20
9050.0
 10
12200.0
 20
7050.0
 10
10800.0
 20
7050.0
  0
LWPOLYLINE
  5
19E
330
17
100
AcDbEntity
  8
I-FURN
100
AcDbPolyline
 90
4
 70
1
 10
10850.0
 20
9000.0
 10
12150.0
 20
9000.0
 10
12150.0
 20
8440.0
 10
10850.0
 20
8440.0
  0
LWPOLYLINE
  5
19F
330
17
100
AcDbEntity
  8
I-FURN
100
AcDbPolyline
 90
4
 70
1
 10
15100.0
 20
9050.0
 10
16500.0
 20
9050.0
 10
16500.0
 20
7050.0
 10
15100.0
 20
7050.0
  0
LWPOLYLINE
  5
1A0
330
17
100
AcDbEntity
  8
I-FURN
100
AcDbPolyline
 90
4
 70
1
 10
15149.999999999998
 20
9000.0
 10
16450.0
 20
9000.0
 10
16450.0
 20
8440.0
 10
15149.999999999998
 20
8440.0
  0
LWPOLYLINE
  5
1A1
330
17
100
AcDbEntity
  8
I-FURN
100
AcDbPolyline
 90
4
 70
1
 10
10742.0
 20
5449.999999999999
 10
11078.0
 20
5449.999999999999
 10
11078.0
 20
5245.999999999999
 10
10742.0
 20
5245.999999999999
  0
ELLIPSE
  5
1A2
330
17
100
AcDbEntity
  8
I-FURN
100
AcDbEllipse
 10
10910.0
 20
5042.0
 30
0.0
 11
210.0
 21
0.0
 31
0.0
 40
0.72
 41
0.0
 42
6.283185307179586
  0
LWPOLYLINE
  5
1A3
330
17
100
AcDbEntity
  8
I-FURN
100
AcDbPolyline
 90
4
 70
1
 10
11500.0
 20
4250.0
 10
12000.0
 20
4250.0
 10
12000.0
 20
3910.0
 10
11500.0
 20
3910.0
  0
CIRCLE
  5
1A4
330
17
100
AcDbEntity
  8
I-FURN
100
AcDbCircle
 10
11750.0
 20
4080.0
 30
0.0
 40
85.0
  0
LWPOLYLINE
  5
1A5
330
17
100
AcDbEntity
  8
I-FURN
100
AcDbPolyline
 90
4
 70
1
 10
10800.0
 20
4600.0
 10
11500.0
 20
4600.0
 10
11500.0
 20
3699.999999999999
 10
10800.0
 20
3699.999999999999
  0
LINE
  5
1A6
330
17
100
AcDbEntity
  8
I-FURN
100
AcDbLine
 10
10800.0
 20
4600.0
 30
0.0
 11
11500.0
 21
3699.999999999999
 31
0.0
  0
LINE
  5
1A7
330
17
100
AcDbEntity
  8
I-FURN
100
AcDbLine
 10
11500.0
 20
4600.0
 30
0.0
 11
10800.0
 21
3699.999999999999
 31
0.0
  0
LWPOLYLINE
  5
1A8
330
17
100
AcDbEntity
  8
I-FURN
100
AcDbPolyline
 90
4
 70
1
 10
16442.0
 20
5449.999999999999
 10
16778.0
 20
5449.999999999999
 10
16778.0
 20
5245.999999999999
 10
16442.0
 20
5245.999999999999
  0
ELLIPSE
  5
1A9
330
17
100
AcDbEntity
  8
I-FURN
100
AcDbEllipse
 10
16610.0
 20
5042.0
 30
0.0
 11
210.0
 21
0.0
 31
0.0
 40
0.72
 41
0.0
 42
6.283185307179586
  0
LWPOLYLINE
  5
1AA
330
17
100
AcDbEntity
  8
I-FURN
100
AcDbPolyline
 90
4
 70
1
 10
15500.0
 20
5400.0
 10
16000.0
 20
5400.0
 10
16000.0
 20
5060.000000000001
 10
15500.0
 20
5060.000000000001
  0
CIRCLE
  5
1AB
330
17
100
AcDbEntity
  8
I-FURN
100
AcDbCircle
 10
15750.0
 20
5230.0
 30
0.0
 40
85.0
  0
LWPOLYLINE
  5
1AC
330
17
100
AcDbEntity
  8
I-FURN
100
AcDbPolyline
 90
4
 70
1
 10
17000.0
 20
5000.0
 10
17850.0
 20
5000.0
 10
17850.0
 20
3800.000000000001
 10
17000.0
 20
3800.000000000001
  0
LINE
  5
1AD
330
17
100
AcDbEntity
  8
I-FURN
100
AcDbLine
 10
17000.0
 20
5000.0
 30
0.0
 11
17850.0
 21
3800.000000000001
 31
0.0
  0
LINE
  5
1AE
330
17
100
AcDbEntity
  8
I-FURN
100
AcDbLine
 10
17850.0
 20
5000.0
 30
0.0
 11
17000.0
 21
3800.000000000001
 31
0.0
  0
LWPOLYLINE
  5
1AF
330
17
100
AcDbEntity
  8
I-FURN
100
AcDbPolyline
 90
4
 70
1
 10
16900.0
 20
5199.999999999999
 10
17800.0
 20
5199.999999999999
 10
17800.0
 20
2799.999999999999
 10
16900.0
 20
2799.999999999999
  0
LWPOLYLINE
  5
1B0
330
17
100
AcDbEntity
  8
I-FURN
100
AcDbPolyline
 90
4
 70
1
 10
16900.0
 20
5199.999999999999
 10
17125.0
 20
5199.999999999999
 10
17125.0
 20
2799.999999999999
 10
16900.0
 20
2799.999999999999
  0
LWPOLYLINE
  5
1B1
330
17
100
AcDbEntity
  8
I-FURN
100
AcDbPolyline
 90
4
 70
1
 10
17575.0
 20
5199.999999999999
 10
17800.0
 20
5199.999999999999
 10
17800.0
 20
2799.999999999999
 10
17575.0
 20
2799.999999999999
  0
LWPOLYLINE
  5
1B2
330
17
100
AcDbEntity
  8
I-FURN
100
AcDbPolyline
 90
4
 70
1
 10
15500.0
 20
4299.999999999999
 10
16500.0
 20
4299.999999999999
 10
16500.0
 20
3599.9999999999995
 10
15500.0
 20
3599.9999999999995
  0
LWPOLYLINE
  5
1B3
330
17
100
AcDbEntity
  8
I-FURN
100
AcDbPolyline
 90
4
 70
1
 10
10850.0
 20
1250.0
 10
12750.0
 20
1250.0
 10
12750.0
 20
199.9999999999993
 10
10850.0
 20
199.9999999999993
  0
LWPOLYLINE
  5
1B4
330
17
100
AcDbEntity
  8
I-FURN
100
AcDbPolyline
 90
4
 70
1
 10
10900.0
 20
1199.9999999999993
 10
12700.0
 20
1199.9999999999993
 10
12700.0
 20
905.9999999999989
 10
10900.0
 20
905.9999999999989
  0
LWPOLYLINE
  5
1B5
330
17
100
AcDbEntity
  8
I-FURN
100
AcDbPolyline
 90
4
 70
1
 10
15692.0
 20
2049.999999999999
 10
16027.999999999998
 20
2049.999999999999
 10
16027.999999999998
 20
1845.9999999999984
 10
15692.0
 20
1845.9999999999984
  0
ELLIPSE
  5
1B6
330
17
100
AcDbEntity
  8
I-FURN
100
AcDbEllipse
 10
15860.0
 20
1641.9999999999995
 30
0.0
 11
210.0
 21
0.0
 31
0.0
 40
0.72
 41
0.0
 42
6.283185307179586
  0
LWPOLYLINE
  5
1B7
330
17
100
AcDbEntity
  8
I-FURN
100
AcDbPolyline
 90
4
 70
1
 10
14300.0
 20
2049.999999999999
 10
14800.0
 20
2049.999999999999
 10
14800.0
 20
1709.999999999999
 10
14300.0
 20
1709.999999999999
  0
CIRCLE
  5
1B8
330
17
100
AcDbEntity
  8
I-FURN
100
AcDbCircle
 10
14550.0
 20
1879.999999999999
 30
0.0
 40
85.0
  0
LWPOLYLINE
  5
1B9
330
17
100
AcDbEntity
  8
I-FURN
100
AcDbPolyline
 90
4
 70
1
 10
14950.0
 20
2049.999999999999
 10
15450.0
 20
2049.999999999999
 10
15450.0
 20
1709.999999999999
 10
14950.0
 20
1709.999999999999
  0
CIRCLE
  5
1BA
330
17
100
AcDbEntity
  8
I-FURN
100
AcDbCircle
 10
15200.0
 20
1879.999999999999
 30
0.0
 40
85.0
  0
LWPOLYLINE
  5
1BB
330
17
100
AcDbEntity
  8
I-FURN
100
AcDbPolyline
 90
4
 70
1
 10
10650.0
 20
3449.999999999999
 10
12500.0
 20
3449.999999999999
 10
12500.0
 20
1549.9999999999989
 10
10650.0
 20
1549.9999999999989
  0
LINE
  5
1BC
330
17
100
AcDbEntity
  8
I-FURN
100
AcDbLine
 10
10650.0
 20
3238.888888888889
 30
0.0
 11
12500.0
 21
3238.888888888889
 31
0.0
  0
LINE
  5
1BD
330
17
100
AcDbEntity
  8
I-FURN
100
AcDbLine
 10
10650.0
 20
3027.777777777777
 30
0.0
 11
12500.0
 21
3027.777777777777
 31
0.0
  0
LINE
  5
1BE
330
17
100
AcDbEntity
  8
I-FURN
100
AcDbLine
 10
10650.0
 20
2816.6666666666665
 30
0.0
 11
12500.0
 21
2816.6666666666665
 31
0.0
  0
LINE
  5
1BF
330
17
100
AcDbEntity
  8
I-FURN
100
AcDbLine
 10
10650.0
 20
2605.5555555555543
 30
0.0
 11
12500.0
 21
2605.5555555555543
 31
0.0
  0
LINE
  5
1C0
330
17
100
AcDbEntity
  8
I-FURN
100
AcDbLine
 10
10650.0
 20
2394.444444444444
 30
0.0
 11
12500.0
 21
2394.444444444444
 31
0.0
  0
LINE
  5
1C1
330
17
100
AcDbEntity
  8
I-FURN
100
AcDbLine
 10
10650.0
 20
2183.3333333333317
 30
0.0
 11
12500.0
 21
2183.3333333333317
 31
0.0
  0
LINE
  5
1C2
330
17
100
AcDbEntity
  8
I-FURN
100
AcDbLine
 10
10650.0
 20
1972.2222222222215
 30
0.0
 11
12500.0
 21
1972.2222222222215
 31
0.0
  0
LINE
  5
1C3
330
17
100
AcDbEntity
  8
I-FURN
100
AcDbLine
 10
10650.0
 20
1761.111111111111
 30
0.0
 11
12500.0
 21
1761.111111111111
 31
0.0
  0
LINE
  5
1C4
330
17
100
AcDbEntity
  8
I-FURN
100
AcDbLine
 10
11575.0
 20
3260.0
 30
0.0
 11
11575.0
 21
1740.0000000000002
 31
0.0
  0
TEXT
  5
1C5
330
17
100
AcDbEntity
  8
A-ANNO-TEXT
100
AcDbText
 10
11920.0
 20
11630.0
 30
0.0
 40
180.0
  1
Techo terraza
 72
1
 11
11920.0
 21
11630.0
 31
0.0
100
AcDbText
 73
2
  0
TEXT
  5
1C6
330
17
100
AcDbEntity
  8
A-ANNO-TEXT
 62
8
100
AcDbText
 10
11920.0
 20
11380.0
 30
0.0
 40
110.0
  1
12.5 m2
 72
1
 11
11920.0
 21
11380.0
 31
0.0
100
AcDbText
 73
2
  0
TEXT
  5
1C7
330
17
100
AcDbEntity
  8
A-ANNO-TEXT
100
AcDbText
 10
12200.0
 20
7630.0
 30
0.0
 40
180.0
  1
Habitación 1
 72
1
 11
12200.0
 21
7630.0
 31
0.0
100
AcDbText
 73
2
  0
TEXT
  5
1C8
330
17
100
AcDbEntity
  8
A-ANNO-TEXT
 62
8
100
AcDbText
 10
12200.0
 20
7380.0
 30
0.0
 40
110.0
  1
12.4 m2
 72
1
 11
12200.0
 21
7380.0
 31
0.0
100
AcDbText
 73
2
  0
TEXT
  5
1C9
330
17
100
AcDbEntity
  8
A-ANNO-TEXT
100
AcDbText
 10
15900.0
 20
7630.0
 30
0.0
 40
180.0
  1
Habitación 2
 72
1
 11
15900.0
 21
7630.0
 31
0.0
100
AcDbText
 73
2
  0
TEXT
  5
1CA
330
17
100
AcDbEntity
  8
A-ANNO-TEXT
 62
8
100
AcDbText
 10
15900.0
 20
7380.0
 30
0.0
 40
110.0
  1
14.6 m2
 72
1
 11
15900.0
 21
7380.0
 31
0.0
100
AcDbText
 73
2
  0
TEXT
  5
1CB
330
17
100
AcDbEntity
  8
A-ANNO-TEXT
100
AcDbText
 10
11450.0
 20
4730.0
 30
0.0
 40
180.0
  1
S.S.
 72
1
 11
11450.0
 21
4730.0
 31
0.0
100
AcDbText
 73
2
  0
TEXT
  5
1CC
330
17
100
AcDbEntity
  8
A-ANNO-TEXT
 62
8
100
AcDbText
 10
11450.0
 20
4480.0
 30
0.0
 40
110.0
  1
3.8 m2
 72
1
 11
11450.0
 21
4480.0
 31
0.0
100
AcDbText
 73
2
  0
TEXT
  5
1CD
330
17
100
AcDbEntity
  8
A-ANNO-TEXT
100
AcDbText
 10
16600.0
 20
4730.0
 30
0.0
 40
180.0
  1
S.S.
 72
1
 11
16600.0
 21
4730.0
 31
0.0
100
AcDbText
 73
2
  0
TEXT
  5
1CE
330
17
100
AcDbEntity
  8
A-ANNO-TEXT
 62
8
100
AcDbText
 10
16600.0
 20
4480.0
 30
0.0
 40
110.0
  1
5.6 m2
 72
1
 11
16600.0
 21
4480.0
 31
0.0
100
AcDbText
 73
2
  0
TEXT
  5
1CF
330
17
100
AcDbEntity
  8
A-ANNO-TEXT
100
AcDbText
 10
14400.0
 20
4130.0
 30
0.0
 40
180.0
  1
Sala Familiar
 72
1
 11
14400.0
 21
4130.0
 31
0.0
100
AcDbText
 73
2
  0
TEXT
  5
1D0
330
17
100
AcDbEntity
  8
A-ANNO-TEXT
 62
8
100
AcDbText
 10
14400.0
 20
3880.0
 30
0.0
 40
110.0
  1
16.0 m2
 72
1
 11
14400.0
 21
3880.0
 31
0.0
100
AcDbText
 73
2
  0
TEXT
  5
1D1
330
17
100
AcDbEntity
  8
A-ANNO-TEXT
100
AcDbText
 10
11550.0
 20
2729.9999999999995
 30
0.0
 40
180.0
  1
Escalera
 72
1
 11
11550.0
 21
2729.9999999999995
 31
0.0
100
AcDbText
 73
2
  0
TEXT
  5
1D2
330
17
100
AcDbEntity
  8
A-ANNO-TEXT
 62
8
100
AcDbText
 10
11550.0
 20
2479.9999999999995
 30
0.0
 40
110.0
  1
4.6 m2
 72
1
 11
11550.0
 21
2479.9999999999995
 31
0.0
100
AcDbText
 73
2
  0
TEXT
  5
1D3
330
17
100
AcDbEntity
  8
A-ANNO-TEXT
100
AcDbText
 10
12250.0
 20
829.9999999999993
 30
0.0
 40
180.0
  1
Hab. Principal
 72
1
 11
12250.0
 21
829.9999999999993
 31
0.0
100
AcDbText
 73
2
  0
TEXT
  5
1D4
330
17
100
AcDbEntity
  8
A-ANNO-TEXT
 62
8
100
AcDbText
 10
12250.0
 20
579.9999999999993
 30
0.0
 40
110.0
  1
5.0 m2
 72
1
 11
12250.0
 21
579.9999999999993
 31
0.0
100
AcDbText
 73
2
  0
TEXT
  5
1D5
330
17
100
AcDbEntity
  8
A-ANNO-TEXT
100
AcDbText
 10
15150.0
 20
1229.9999999999995
 30
0.0
 40
180.0
  1
S.S. principal
 72
1
 11
15150.0
 21
1229.9999999999995
 31
0.0
100
AcDbText
 73
2
  0
TEXT
  5
1D6
330
17
100
AcDbEntity
  8
A-ANNO-TEXT
 62
8
100
AcDbText
 10
15150.0
 20
979.9999999999995
 30
0.0
 40
110.0
  1
4.6 m2
 72
1
 11
15150.0
 21
979.9999999999995
 31
0.0
100
AcDbText
 73
2
  0
TEXT
  5
1D7
330
17
100
AcDbEntity
  8
A-ANNO-TEXT
100
AcDbText
 10
17100.0
 20
1229.9999999999995
 30
0.0
 40
180.0
  1
Vestidor
 72
1
 11
17100.0
 21
1229.9999999999995
 31
0.0
100
AcDbText
 73
2
  0
TEXT
  5
1D8
330
17
100
AcDbEntity
  8
A-ANNO-TEXT
 62
8
100
AcDbText
 10
17100.0
 20
979.9999999999995
 30
0.0
 40
110.0
  1
4.0 m2
 72
1
 11
17100.0
 21
979.9999999999995
 31
0.0
100
AcDbText
 73
2
  0
DIMENSION
  5
1D9
330
17
100
AcDbEntity
  8
A-ANNO-DIMS
100
AcDbDimension
280
0
  2
*D3
  3
EZDXF
 10
10500.0
 20
-1099.9999999999995
 30
0.0
 11
14250.0
 21
-1098.6499999999996
 31
0.0
 70
32
 71
5
  1
<>
100
AcDbAlignedDimension
 13
10500.0
 23
0.0
 33
0.0
 14
18000.0
 24
0.0
 34
0.0
 50
0.0
100
AcDbRotatedDimension
1001
ACAD
1000
DSTYLE
1002
{
1070
140
1040
2.5
1002
}
  0
DIMENSION
  5
1E8
330
17
100
AcDbEntity
  8
A-ANNO-DIMS
100
AcDbDimension
280
0
  2
*D4
  3
EZDXF
 10
9400.0
 20
13600.0
 30
0.0
 11
9401.35
 21
6800.0
 31
0.0
 70
32
 71
5
  1
<>
100
AcDbAlignedDimension
 13
10500.0
 23
13600.0
 33
0.0
 14
10500.0
 24
0.0
 34
0.0
 50
90.0
100
AcDbRotatedDimension
1001
ACAD
1000
DSTYLE
1002
{
1070
140
1040
2.5
1002
}
  0
TEXT
  5
1F7
330
17
100
AcDbEntity
  8
A-ANNO-TEXT
100
AcDbText
 10
10500.0
 20
-900.0
 30
0.0
 40
300.0
  1
SEGUNDA PLANTA
 11
10500.0
 21
-900.0
 31
0.0
100
AcDbText
  0
TEXT
  5
1F8
330
17
100
AcDbEntity
  8
A-ANNO-TEXT
100
AcDbText
 10
0.0
 20
15000.0
 30
0.0
 40
340.0
  1
CASA CASTILLA  ·  175 m2  ·  3 dorm  ·  4.5 banos  ·  escala 1:100
 11
0.0
 21
15000.0
 31
0.0
100
AcDbText
  0
TEXT
  5
1F9
330
17
100
AcDbEntity
  8
A-ANNO-TEXT
 62
8
100
AcDbText
 10
0.0
 20
14500.0
 30
0.0
 40
160.0
  1
Interpretation of the developer brochure; dimensions approximate pending official blueprints.
 11
0.0
 21
14500.0
 31
0.0
100
AcDbText
  0
ENDSEC
  0
SECTION
  2
OBJECTS
  0
DICTIONARY
  5
A
330
0
100
AcDbDictionary
281
1
  3
ACAD_COLOR
350
B
  3
ACAD_GROUP
350
C
  3
ACAD_LAYOUT
350
D
  3
ACAD_MATERIAL
350
E
  3
ACAD_MLEADERSTYLE
350
F
  3
ACAD_MLINESTYLE
350
10
  3
ACAD_PLOTSETTINGS
350
11
  3
ACAD_PLOTSTYLENAME
350
12
  3
ACAD_SCALELIST
350
14
  3
ACAD_TABLESTYLE
350
15
  3
ACAD_VISUALSTYLE
350
16
  3
EZDXF_META
350
2D
  0
DICTIONARY
  5
B
330
A
100
AcDbDictionary
281
1
  0
DICTIONARY
  5
C
330
A
100
AcDbDictionary
281
1
  0
DICTIONARY
  5
D
330
A
100
AcDbDictionary
281
1
  3
Model
350
1A
  3
Layout1
350
1E
  0
DICTIONARY
  5
E
330
A
100
AcDbDictionary
281
1
  3
ByBlock
350
1F
  3
ByLayer
350
20
  3
Global
350
21
  0
DICTIONARY
  5
F
330
A
100
AcDbDictionary
281
1
  3
Standard
350
2C
  0
DICTIONARY
  5
10
330
A
100
AcDbDictionary
281
1
  3
Standard
350
22
  0
DICTIONARY
  5
11
330
A
100
AcDbDictionary
281
1
  0
ACDBDICTIONARYWDFLT
  5
12
330
A
100
AcDbDictionary
281
1
  3
Normal
350
13
100
AcDbDictionaryWithDefault
340
13
  0
ACDBPLACEHOLDER
  5
13
330
12
  0
DICTIONARY
  5
14
330
A
100
AcDbDictionary
281
1
  0
DICTIONARY
  5
15
330
A
100
AcDbDictionary
281
1
  0
DICTIONARY
  5
16
330
A
100
AcDbDictionary
281
1
  3
2dWireframe
350
5A
  3
Basic
350
5B
  3
Brighten
350
5C
  3
ColorChange
350
5D
  3
Conceptual
350
5E
  3
Dim
350
5F
  3
EdgeColorOff
350
60
  3
Facepattern
350
61
  3
Flat
350
62
  3
FlatWithEdges
350
63
  3
Gouraud
350
64
  3
GouraudWithEdges
350
65
  3
Hidden
350
66
  3
JitterOff
350
67
  3
Linepattern
350
68
  3
Modeling
350
69
  3
OverhangOff
350
6A
  3
Realistic
350
6B
  3
Shaded
350
6C
  3
Shaded with edges
350
6D
  3
Shades of Gray
350
6E
  3
Sketchy
350
6F
  3
Thicken
350
70
  3
Wireframe
350
71
  3
X-Ray
350
72
  0
LAYOUT
  5
1A
330
D
100
AcDbPlotSettings
  1

  4
A3
  6

 40
7.5
 41
20.0
 42
7.5
 43
20.0
 44
420.0
 45
297.0
 46
0.0
 47
0.0
 48
0.0
 49
0.0
140
0.0
141
0.0
142
1.0
143
1.0
 70
1024
 72
1
 73
0
 74
5
  7

 75
16
 76
0
 77
2
 78
300
147
1.0
148
0.0
149
0.0
100
AcDbLayout
  1
Model
 70
1
 71
0
 10
0.0
 20
0.0
 11
420.0
 21
297.0
 12
0.0
 22
0.0
 32
0.0
 14
1e+20
 24
1e+20
 34
1e+20
 15
-1e+20
 25
-1e+20
 35
-1e+20
146
0.0
 13
0.0
 23
0.0
 33
0.0
 16
1.0
 26
0.0
 36
0.0
 17
0.0
 27
1.0
 37
0.0
 76
1
330
17
  0
LAYOUT
  5
1E
330
D
100
AcDbPlotSettings
  1

  4
A3
  6

 40
7.5
 41
20.0
 42
7.5
 43
20.0
 44
420.0
 45
297.0
 46
0.0
 47
0.0
 48
0.0
 49
0.0
140
0.0
141
0.0
142
1.0
143
1.0
 70
0
 72
1
 73
0
 74
5
  7

 75
16
 76
0
 77
2
 78
300
147
1.0
148
0.0
149
0.0
100
AcDbLayout
  1
Layout1
 70
1
 71
1
 10
0.0
 20
0.0
 11
420.0
 21
297.0
 12
0.0
 22
0.0
 32
0.0
 14
1e+20
 24
1e+20
 34
1e+20
 15
-1e+20
 25
-1e+20
 35
-1e+20
146
0.0
 13
0.0
 23
0.0
 33
0.0
 16
1.0
 26
0.0
 36
0.0
 17
0.0
 27
1.0
 37
0.0
 76
1
330
1B
  0
MATERIAL
  5
1F
102
{ACAD_REACTORS
330
E
102
}
330
E
100
AcDbMaterial
  1
ByBlock
  2

 70
0
 40
1.0
 71
1
 41
1.0
 91
-1023410177
 42
1.0
 72
1
  3

 73
1
 74
1
 75
1
 44
0.5
 73
0
 45
1.0
 46
1.0
 77
1
  4

 78
1
 79
1
170
1
 48
1.0
171
1
  6

172
1
173
1
174
1
140
1.0
141
1.0
175
1
  7

176
1
177
1
178
1
143
1.0
179
1
  8

270
1
271
1
272
1
145
1.0
146
1.0
273
1
  9

274
1
275
1
276
1
 42
1.0
 72
1
  3

 73
1
 74
1
 75
1
 94
63
  0
MATERIAL
  5
20
102
{ACAD_REACTORS
330
E
102
}
330
E
100
AcDbMaterial
  1
ByLayer
  2

 70
0
 40
1.0
 71
1
 41
1.0
 91
-1023410177
 42
1.0
 72
1
  3

 73
1
 74
1
 75
1
 44
0.5
 73
0
 45
1.0
 46
1.0
 77
1
  4

 78
1
 79
1
170
1
 48
1.0
171
1
  6

172
1
173
1
174
1
140
1.0
141
1.0
175
1
  7

176
1
177
1
178
1
143
1.0
179
1
  8

270
1
271
1
272
1
145
1.0
146
1.0
273
1
  9

274
1
275
1
276
1
 42
1.0
 72
1
  3

 73
1
 74
1
 75
1
 94
63
  0
MATERIAL
  5
21
102
{ACAD_REACTORS
330
E
102
}
330
E
100
AcDbMaterial
  1
Global
  2

 70
0
 40
1.0
 71
1
 41
1.0
 91
-1023410177
 42
1.0
 72
1
  3

 73
1
 74
1
 75
1
 44
0.5
 73
0
 45
1.0
 46
1.0
 77
1
  4

 78
1
 79
1
170
1
 48
1.0
171
1
  6

172
1
173
1
174
1
140
1.0
141
1.0
175
1
  7

176
1
177
1
178
1
143
1.0
179
1
  8

270
1
271
1
272
1
145
1.0
146
1.0
273
1
  9

274
1
275
1
276
1
 42
1.0
 72
1
  3

 73
1
 74
1
 75
1
 94
63
  0
MLINESTYLE
  5
22
102
{ACAD_REACTORS
330
10
102
}
330
10
100
AcDbMlineStyle
  2
Standard
 70
0
  3

 62
256
 51
90.0
 52
90.0
 71
2
 49
0.5
 62
256
  6
BYLAYER
 49
-0.5
 62
256
  6
BYLAYER
  0
MLEADERSTYLE
  5
2C
102
{ACAD_REACTORS
330
F
102
}
330
F
100
AcDbMLeaderStyle
179
2
170
2
171
1
172
0
 90
2
 40
0.0
 41
0.0
173
1
 91
-1056964608
 92
-2
290
1
 42
2.0
291
1
 43
8.0
  3
Standard
 44
4.0
300

342
29
174
1
175
1
176
0
178
1
 93
-1056964608
 45
4.0
292
0
297
0
 46
4.0
 94
-1056964608
 47
1.0
 49
1.0
140
1.0
294
1
141
0.0
177
0
142
1.0
295
0
296
0
143
3.75
271
0
272
9
273
9
  0
DICTIONARY
  5
2D
330
A
100
AcDbDictionary
280
1
281
1
  3
CREATED_BY_EZDXF
350
2E
  3
WRITTEN_BY_EZDXF
350
1FC
  0
DICTIONARYVAR
  5
2E
330
2D
100
DictionaryVariables
280
0
  1
1.4.4 @ 2026-08-05T21:13:45.547942+00:00
  0
VISUALSTYLE
  5
5A
102
{ACAD_REACTORS
330
16
102
}
330
16
100
AcDbVisualStyle
  2
2dWireframe
 70
4
 90
0
 40
0.6
 62
7
290
0
291
0
  0
VISUALSTYLE
  5
5B
102
{ACAD_REACTORS
330
16
102
}
330
16
100
AcDbVisualStyle
  2
Basic
 70
7
 90
1
 40
0.6
 62
7
290
0
291
1
  0
VISUALSTYLE
  5
5C
102
{ACAD_REACTORS
330
16
102
}
330
16
100
AcDbVisualStyle
  2
Brighten
 70
12
 90
2
 40
0.6
 62
7
290
0
291
1
  0
VISUALSTYLE
  5
5D
102
{ACAD_REACTORS
330
16
102
}
330
16
100
AcDbVisualStyle
  2
ColorChange
 70
16
 90
2
 40
0.6
 62
8
290
0
291
1
  0
VISUALSTYLE
  5
5E
102
{ACAD_REACTORS
330
16
102
}
330
16
100
AcDbVisualStyle
  2
Conceptual
 70
9
 90
3
 40
0.6
 62
7
290
0
291
0
  0
VISUALSTYLE
  5
5F
102
{ACAD_REACTORS
330
16
102
}
330
16
100
AcDbVisualStyle
  2
Dim
 70
11
 90
2
 40
0.6
 62
7
290
0
291
1
  0
VISUALSTYLE
  5
60
102
{ACAD_REACTORS
330
16
102
}
330
16
100
AcDbVisualStyle
  2
EdgeColorOff
 70
22
 90
2
 40
0.6
 62
7
290
0
291
1
  0
VISUALSTYLE
  5
61
102
{ACAD_REACTORS
330
16
102
}
330
16
100
AcDbVisualStyle
  2
Facepattern
 70
15
 90
2
 40
0.6
 62
7
290
0
291
1
  0
VISUALSTYLE
  5
62
102
{ACAD_REACTORS
330
16
102
}
330
16
100
AcDbVisualStyle
  2
Flat
 70
0
 90
2
 40
0.6
 62
7
290
0
291
1
  0
VISUALSTYLE
  5
63
102
{ACAD_REACTORS
330
16
102
}
330
16
100
AcDbVisualStyle
  2
FlatWithEdges
 70
1
 90
2
 40
0.6
 62
7
290
0
291
1
  0
VISUALSTYLE
  5
64
102
{ACAD_REACTORS
330
16
102
}
330
16
100
AcDbVisualStyle
  2
Gouraud
 70
2
 90
2
 40
0.6
 62
7
290
0
291
1
  0
VISUALSTYLE
  5
65
102
{ACAD_REACTORS
330
16
102
}
330
16
100
AcDbVisualStyle
  2
GouraudWithEdges
 70
3
 90
2
 40
0.6
 62
7
290
0
291
1
  0
VISUALSTYLE
  5
66
102
{ACAD_REACTORS
330
16
102
}
330
16
100
AcDbVisualStyle
  2
Hidden
 70
6
 90
1
 40
0.6
 62
7
290
0
291
0
  0
VISUALSTYLE
  5
67
102
{ACAD_REACTORS
330
16
102
}
330
16
100
AcDbVisualStyle
  2
JitterOff
 70
20
 90
2
 40
0.6
 62
7
290
0
291
1
  0
VISUALSTYLE
  5
68
102
{ACAD_REACTORS
330
16
102
}
330
16
100
AcDbVisualStyle
  2
Linepattern
 70
14
 90
2
 40
0.6
 62
7
290
0
291
1
  0
VISUALSTYLE
  5
69
102
{ACAD_REACTORS
330
16
102
}
330
16
100
AcDbVisualStyle
  2
Modeling
 70
10
 90
2
 40
0.6
 62
7
290
0
291
0
  0
VISUALSTYLE
  5
6A
102
{ACAD_REACTORS
330
16
102
}
330
16
100
AcDbVisualStyle
  2
OverhangOff
 70
21
 90
2
 40
0.6
 62
7
290
0
291
1
  0
VISUALSTYLE
  5
6B
102
{ACAD_REACTORS
330
16
102
}
330
16
100
AcDbVisualStyle
  2
Realistic
 70
8
 90
2
 40
0.6
 62
7
290
0
291
0
  0
VISUALSTYLE
  5
6C
102
{ACAD_REACTORS
330
16
102
}
330
16
100
AcDbVisualStyle
  2
Shaded
 70
27
 90
2
 40
0.6
 62
7
290
0
291
0
  0
VISUALSTYLE
  5
6D
102
{ACAD_REACTORS
330
16
102
}
330
16
100
AcDbVisualStyle
  2
Shaded with edges
 70
26
 90
2
 40
0.6
 62
7
290
0
291
0
  0
VISUALSTYLE
  5
6E
102
{ACAD_REACTORS
330
16
102
}
330
16
100
AcDbVisualStyle
  2
Shades of Gray
 70
23
 90
2
 40
0.6
 62
7
290
0
291
0
  0
VISUALSTYLE
  5
6F
102
{ACAD_REACTORS
330
16
102
}
330
16
100
AcDbVisualStyle
  2
Sketchy
 70
24
 90
1
 40
0.6
 62
7
290
0
291
0
  0
VISUALSTYLE
  5
70
102
{ACAD_REACTORS
330
16
102
}
330
16
100
AcDbVisualStyle
  2
Thicken
 70
13
 90
2
 40
0.6
 62
7
290
0
291
1
  0
VISUALSTYLE
  5
71
102
{ACAD_REACTORS
330
16
102
}
330
16
100
AcDbVisualStyle
  2
Wireframe
 70
5
 90
0
 40
0.6
 62
7
290
0
291
0
  0
VISUALSTYLE
  5
72
102
{ACAD_REACTORS
330
16
102
}
330
16
100
AcDbVisualStyle
  2
X-Ray
 70
25
 90
2
 40
0.5
 62
7
290
0
291
0
  0
DICTIONARYVAR
  5
1FC
330
2D
100
DictionaryVariables
280
0
  1
1.4.4 @ 2026-08-05T21:13:45.571951+00:00
  0
ENDSEC
  0
EOF
